<svg xmlns="http://www.w3.org/2000/svg" width="1850" height="864" viewBox="0 0 1850 864">
<style>
text{font-family:Arial,Helvetica,sans-serif} .base{font-size:12px;font-weight:700;text-anchor:middle;dominant-baseline:middle}
.label{font-size:20px;font-weight:700;fill:#111827}.small{font-size:12px;fill:#475569}.feature-label{font-size:12px;font-weight:700;paint-order:stroke;stroke:#fff;stroke-width:4px;stroke-linejoin:round}.feature-callout{stroke-width:1;stroke-dasharray:2 3;fill:none}.bp{stroke:#111827;stroke-width:1.4}.backbone{stroke:#cbd5e1;stroke-width:3;fill:none}.missing{stroke:#94a3b8;stroke-width:3;stroke-dasharray:6 7;fill:none}.inter{stroke:#64748b;stroke-dasharray:5 5;fill:none;opacity:.42}
</style>
<rect width="100%" height="100%" fill="#ffffff"/>
<text x="70" y="40" class="label">6Y50 RNA 2D panel using R2DT layouts</text>
<text x="70" y="63" class="small">stage U2 snRNP; Human; 4.1 A; 2020</text>
<text x="70" y="80" class="small">Per-chain R2DT/RNApuzzler layouts; dashed backbones mark unresolved sequence-record residues; inter-RNA base pairs are clustered from FR3D output.</text>
<rect x="70.0" y="92.0" width="820.0" height="520.0" rx="8" fill="#f8fafc" stroke="#e2e8f0"/>
<text x="88.0" y="120.0" class="label" style="font-size:16px;fill:#006400">U2 snRNA /2 -&gt; 2</text>
<polyline points="125.0,554.6 167.3,554.6 209.5,554.6 251.8,554.6 294.0,554.6 336.3,554.6 378.6,554.6 420.8,554.6 463.1,554.6 505.4,554.6 505.4,512.3 486.8,474.3 505.4,436.4 505.4,394.1 505.4,351.8 505.4,309.6 505.4,267.3 483.7,231.0 496.4,190.7 534.9,173.4 573.5,190.7 586.2,231.0 564.5,267.3 564.5,309.6 564.5,351.8 564.5,394.1 564.5,436.4 583.1,474.3 564.5,512.3 564.5,554.6 606.8,554.6 649.0,554.6 691.3,554.6 733.6,554.6 733.6,512.3 733.6,470.1 733.6,427.8 702.1,399.6 692.1,358.5 707.2,319.1 742.0,295.1 784.3,295.1 819.1,319.1 834.2,358.5 824.2,399.6 792.7,427.8 792.7,470.1 792.7,512.3 792.7,554.6 835.0,554.6" class="backbone"/>
<path d="M88.0,554.6 L125.0,554.6" class="missing"><title>missing 5-prime /2 sequence residues 1-11 (11 nt)</title></path>
<text x="88.0" y="546.6" text-anchor="start" class="small" fill="#64748b">missing 5-prime 11 nt</text>
<path d="M835.0,554.6 L872.0,554.6" class="missing"><title>missing 3-prime /2 sequence residues 66-188 (123 nt)</title></path>
<text x="872.0" y="546.6" text-anchor="end" class="small" fill="#64748b">missing 3-prime 123 nt</text>
<path d="M209.5,554.6 Q230.7,518.6 251.8,554.6" class="missing"><title>missing /2 sequence residues 15-18 (4 nt)</title></path>
<line x1="167.3" y1="554.6" x2="294.0" y2="554.6" class="bp"><title>cWW auth 13-20; seq 13-20</title></line>
<line x1="209.5" y1="554.6" x2="251.8" y2="554.6" class="bp"><title>cWW auth 14-19; seq 14-19</title></line>
<line x1="251.8" y1="554.6" x2="209.5" y2="554.6" class="bp"><title>cWW auth 19-14; seq 19-14</title></line>
<line x1="294.0" y1="554.6" x2="167.3" y2="554.6" class="bp"><title>cWW auth 20-13; seq 20-13</title></line>
<line x1="505.4" y1="554.6" x2="564.5" y2="554.6" class="bp"><title>cWW auth 25-45; seq 25-45</title></line>
<line x1="505.4" y1="512.3" x2="564.5" y2="512.3" class="bp"><title>cWW auth 26-44; seq 26-44</title></line>
<line x1="505.4" y1="436.4" x2="564.5" y2="436.4" class="bp"><title>cWW auth 28-42; seq 28-42</title></line>
<line x1="505.4" y1="394.1" x2="564.5" y2="394.1" class="bp"><title>cWW auth 29-41; seq 29-41</title></line>
<line x1="505.4" y1="351.8" x2="564.5" y2="351.8" class="bp"><title>cWW auth 30-40; seq 30-40</title></line>
<line x1="505.4" y1="309.6" x2="564.5" y2="309.6" class="bp"><title>cWW auth 31-39; seq 31-39</title></line>
<line x1="505.4" y1="267.3" x2="564.5" y2="267.3" class="bp"><title>cWW auth 32-38; seq 32-38</title></line>
<line x1="564.5" y1="267.3" x2="505.4" y2="267.3" class="bp"><title>cWW auth 38-32; seq 38-32</title></line>
<line x1="564.5" y1="309.6" x2="505.4" y2="309.6" class="bp"><title>cWW auth 39-31; seq 39-31</title></line>
<line x1="564.5" y1="351.8" x2="505.4" y2="351.8" class="bp"><title>cWW auth 40-30; seq 40-30</title></line>
<line x1="564.5" y1="394.1" x2="505.4" y2="394.1" class="bp"><title>cWW auth 41-29; seq 41-29</title></line>
<line x1="564.5" y1="436.4" x2="505.4" y2="436.4" class="bp"><title>cWW auth 42-28; seq 42-28</title></line>
<line x1="564.5" y1="512.3" x2="505.4" y2="512.3" class="bp"><title>cWW auth 44-26; seq 44-26</title></line>
<line x1="564.5" y1="554.6" x2="505.4" y2="554.6" class="bp"><title>cWW auth 45-25; seq 45-25</title></line>
<line x1="733.6" y1="554.6" x2="792.7" y2="554.6" class="bp"><title>cWW auth 49-64; seq 49-64</title></line>
<line x1="733.6" y1="512.3" x2="792.7" y2="512.3" class="bp"><title>cWW auth 50-63; seq 50-63</title></line>
<line x1="733.6" y1="470.1" x2="792.7" y2="470.1" class="bp"><title>cWW auth 51-62; seq 51-62</title></line>
<line x1="733.6" y1="427.8" x2="792.7" y2="427.8" class="bp"><title>cWW auth 52-61; seq 52-61</title></line>
<line x1="692.1" y1="358.5" x2="834.2" y2="358.5" class="bp"><title>tSH auth 54-59; seq 54-59</title></line>
<line x1="834.2" y1="358.5" x2="692.1" y2="358.5" class="bp"><title>tHS auth 59-54; seq 59-54</title></line>
<line x1="792.7" y1="427.8" x2="733.6" y2="427.8" class="bp"><title>cWW auth 61-52; seq 61-52</title></line>
<line x1="792.7" y1="470.1" x2="733.6" y2="470.1" class="bp"><title>cWW auth 62-51; seq 62-51</title></line>
<line x1="792.7" y1="512.3" x2="733.6" y2="512.3" class="bp"><title>cWW auth 63-50; seq 63-50</title></line>
<line x1="792.7" y1="554.6" x2="733.6" y2="554.6" class="bp"><title>cWW auth 64-49; seq 64-49</title></line>
<circle cx="505.4" cy="512.3" r="9.2" fill="#047857" opacity="0.28"><title>U2/U6 helix I partner; confidence high</title></circle>
<circle cx="486.8" cy="474.3" r="9.2" fill="#047857" opacity="0.28"><title>U2/U6 helix I partner; confidence high</title></circle>
<circle cx="505.4" cy="436.4" r="9.2" fill="#047857" opacity="0.28"><title>U2/U6 helix I partner; confidence high</title></circle>
<circle cx="505.4" cy="394.1" r="9.2" fill="#047857" opacity="0.28"><title>U2/U6 helix I partner; confidence high</title></circle>
<circle cx="505.4" cy="351.8" r="9.2" fill="#047857" opacity="0.28"><title>U2/U6 helix I partner; confidence high</title></circle>
<circle cx="505.4" cy="267.3" r="9.2" fill="#0b6e2d" opacity="0.22"><title>branchpoint pairing region; confidence medium</title></circle>
<circle cx="483.7" cy="231.0" r="9.2" fill="#0b6e2d" opacity="0.22"><title>branchpoint pairing region; confidence medium</title></circle>
<circle cx="496.4" cy="190.7" r="9.2" fill="#0b6e2d" opacity="0.22"><title>branchpoint pairing region; confidence medium</title></circle>
<circle cx="534.9" cy="173.4" r="9.2" fill="#0b6e2d" opacity="0.22"><title>branchpoint pairing region; confidence medium</title></circle>
<circle cx="573.5" cy="190.7" r="9.2" fill="#0b6e2d" opacity="0.22"><title>branchpoint pairing region; confidence medium</title></circle>
<circle cx="586.2" cy="231.0" r="9.2" fill="#0b6e2d" opacity="0.22"><title>branchpoint pairing region; confidence medium</title></circle>
<circle cx="564.5" cy="267.3" r="9.2" fill="#0b6e2d" opacity="0.22"><title>branchpoint pairing region; confidence medium</title></circle>
<circle cx="564.5" cy="309.6" r="9.2" fill="#0b6e2d" opacity="0.22"><title>branchpoint pairing region; confidence medium</title></circle>
<circle cx="564.5" cy="351.8" r="9.2" fill="#0b6e2d" opacity="0.22"><title>branchpoint pairing region; confidence medium</title></circle>
<circle cx="564.5" cy="394.1" r="9.2" fill="#0b6e2d" opacity="0.22"><title>branchpoint pairing region; confidence medium</title></circle>
<circle cx="606.8" cy="554.6" r="9.2" fill="#167a38" opacity="0.14"><title>stem IIa; confidence low</title></circle>
<circle cx="649.0" cy="554.6" r="9.2" fill="#167a38" opacity="0.14"><title>stem IIa; confidence low</title></circle>
<circle cx="691.3" cy="554.6" r="9.2" fill="#167a38" opacity="0.14"><title>stem IIa; confidence low</title></circle>
<circle cx="733.6" cy="554.6" r="9.2" fill="#167a38" opacity="0.14"><title>stem IIa; confidence low</title></circle>
<circle cx="733.6" cy="512.3" r="9.2" fill="#167a38" opacity="0.14"><title>stem IIa; confidence low</title></circle>
<circle cx="733.6" cy="470.1" r="9.2" fill="#167a38" opacity="0.14"><title>stem IIa; confidence low</title></circle>
<circle cx="733.6" cy="427.8" r="9.2" fill="#167a38" opacity="0.14"><title>stem IIa; confidence low</title></circle>
<circle cx="702.1" cy="399.6" r="9.2" fill="#167a38" opacity="0.14"><title>stem IIa; confidence low</title></circle>
<circle cx="692.1" cy="358.5" r="9.2" fill="#167a38" opacity="0.14"><title>stem IIa; confidence low</title></circle>
<circle cx="707.2" cy="319.1" r="9.2" fill="#167a38" opacity="0.14"><title>stem IIa; confidence low</title></circle>
<circle cx="742.0" cy="295.1" r="9.2" fill="#167a38" opacity="0.14"><title>stem IIa; confidence low</title></circle>
<circle cx="784.3" cy="295.1" r="9.2" fill="#167a38" opacity="0.14"><title>stem IIa; confidence low</title></circle>
<circle cx="819.1" cy="319.1" r="9.2" fill="#167a38" opacity="0.14"><title>stem IIa; confidence low</title></circle>
<circle cx="834.2" cy="358.5" r="9.2" fill="#167a38" opacity="0.14"><title>stem IIa; confidence low</title></circle>
<circle cx="824.2" cy="399.6" r="9.2" fill="#167a38" opacity="0.14"><title>stem IIa; confidence low</title></circle>
<circle cx="792.7" cy="427.8" r="9.2" fill="#167a38" opacity="0.14"><title>stem IIa; confidence low</title></circle>
<circle cx="792.7" cy="470.1" r="9.2" fill="#167a38" opacity="0.14"><title>stem IIa; confidence low</title></circle>
<circle cx="792.7" cy="512.3" r="9.2" fill="#167a38" opacity="0.14"><title>stem IIa; confidence low</title></circle>
<circle cx="792.7" cy="554.6" r="9.2" fill="#167a38" opacity="0.14"><title>stem IIa; confidence low</title></circle>
<circle cx="835.0" cy="554.6" r="9.2" fill="#167a38" opacity="0.14"><title>stem IIa; confidence low</title></circle>
<text x="125.0" y="554.6" class="base" fill="#006400"><title>/2 seq 12 auth 12</title>G</text>
<text x="167.3" y="554.6" class="base" fill="#006400"><title>/2 seq 13 auth 13</title>C</text>
<text x="209.5" y="554.6" class="base" fill="#006400"><title>/2 seq 14 auth 14</title>C</text>
<text x="251.8" y="554.6" class="base" fill="#006400"><title>/2 seq 19 auth 19</title>G</text>
<text x="294.0" y="554.6" class="base" fill="#006400"><title>/2 seq 20 auth 20</title>G</text>
<text x="304.0" y="542.6" class="small" fill="#94a3b8">20</text>
<text x="336.3" y="554.6" class="base" fill="#006400"><title>/2 seq 21 auth 21</title>C</text>
<text x="378.6" y="554.6" class="base" fill="#006400"><title>/2 seq 22 auth 22</title>U</text>
<text x="420.8" y="554.6" class="base" fill="#006400"><title>/2 seq 23 auth 23</title>A</text>
<text x="463.1" y="554.6" class="base" fill="#006400"><title>/2 seq 24 auth 24</title>A</text>
<text x="505.4" y="554.6" class="base" fill="#006400"><title>/2 seq 25 auth 25</title>G</text>
<text x="505.4" y="512.3" class="base" fill="#006400"><title>/2 seq 26 auth 26</title>A</text>
<text x="486.8" y="474.3" class="base" fill="#006400"><title>/2 seq 27 auth 27</title>U</text>
<text x="505.4" y="436.4" class="base" fill="#006400"><title>/2 seq 28 auth 28</title>C</text>
<text x="505.4" y="394.1" class="base" fill="#006400"><title>/2 seq 29 auth 29</title>A</text>
<text x="505.4" y="351.8" class="base" fill="#006400"><title>/2 seq 30 auth 30</title>A</text>
<text x="515.4" y="339.8" class="small" fill="#94a3b8">30</text>
<text x="505.4" y="309.6" class="base" fill="#006400"><title>/2 seq 31 auth 31</title>G</text>
<text x="505.4" y="267.3" class="base" fill="#006400"><title>/2 seq 32 auth 32</title>U</text>
<text x="483.7" y="231.0" class="base" fill="#006400"><title>/2 seq 33 auth 33</title>G</text>
<text x="496.4" y="190.7" class="base" fill="#006400"><title>/2 seq 34 auth 34</title>U</text>
<text x="534.9" y="173.4" class="base" fill="#006400"><title>/2 seq 35 auth 35</title>A</text>
<text x="573.5" y="190.7" class="base" fill="#006400"><title>/2 seq 36 auth 36</title>G</text>
<text x="586.2" y="231.0" class="base" fill="#006400"><title>/2 seq 37 auth 37</title>U</text>
<text x="564.5" y="267.3" class="base" fill="#006400"><title>/2 seq 38 auth 38</title>A</text>
<text x="564.5" y="309.6" class="base" fill="#006400"><title>/2 seq 39 auth 39</title>U</text>
<text x="564.5" y="351.8" class="base" fill="#006400"><title>/2 seq 40 auth 40</title>C</text>
<text x="574.5" y="339.8" class="small" fill="#94a3b8">40</text>
<text x="564.5" y="394.1" class="base" fill="#006400"><title>/2 seq 41 auth 41</title>U</text>
<text x="564.5" y="436.4" class="base" fill="#006400"><title>/2 seq 42 auth 42</title>G</text>
<text x="583.1" y="474.3" class="base" fill="#006400"><title>/2 seq 43 auth 43</title>U</text>
<text x="564.5" y="512.3" class="base" fill="#006400"><title>/2 seq 44 auth 44</title>U</text>
<text x="564.5" y="554.6" class="base" fill="#006400"><title>/2 seq 45 auth 45</title>C</text>
<text x="606.8" y="554.6" class="base" fill="#006400"><title>/2 seq 46 auth 46</title>U</text>
<text x="649.0" y="554.6" class="base" fill="#006400"><title>/2 seq 47 auth 47</title>U</text>
<text x="691.3" y="554.6" class="base" fill="#006400"><title>/2 seq 48 auth 48</title>A</text>
<text x="733.6" y="554.6" class="base" fill="#006400"><title>/2 seq 49 auth 49</title>U</text>
<text x="733.6" y="512.3" class="base" fill="#006400"><title>/2 seq 50 auth 50</title>C</text>
<text x="743.6" y="500.3" class="small" fill="#94a3b8">50</text>
<text x="733.6" y="470.1" class="base" fill="#006400"><title>/2 seq 51 auth 51</title>A</text>
<text x="733.6" y="427.8" class="base" fill="#006400"><title>/2 seq 52 auth 52</title>G</text>
<text x="702.1" y="399.6" class="base" fill="#006400"><title>/2 seq 53 auth 53</title>U</text>
<text x="692.1" y="358.5" class="base" fill="#006400"><title>/2 seq 54 auth 54</title>U</text>
<text x="707.2" y="319.1" class="base" fill="#006400"><title>/2 seq 55 auth 55</title>U</text>
<text x="742.0" y="295.1" class="base" fill="#006400"><title>/2 seq 56 auth 56</title>A</text>
<text x="784.3" y="295.1" class="base" fill="#006400"><title>/2 seq 57 auth 57</title>A</text>
<text x="819.1" y="319.1" class="base" fill="#006400"><title>/2 seq 58 auth 58</title>U</text>
<text x="834.2" y="358.5" class="base" fill="#006400"><title>/2 seq 59 auth 59</title>A</text>
<text x="824.2" y="399.6" class="base" fill="#006400"><title>/2 seq 60 auth 60</title>U</text>
<text x="834.2" y="387.6" class="small" fill="#94a3b8">60</text>
<text x="792.7" y="427.8" class="base" fill="#006400"><title>/2 seq 61 auth 61</title>C</text>
<text x="792.7" y="470.1" class="base" fill="#006400"><title>/2 seq 62 auth 62</title>U</text>
<text x="792.7" y="512.3" class="base" fill="#006400"><title>/2 seq 63 auth 63</title>G</text>
<text x="792.7" y="554.6" class="base" fill="#006400"><title>/2 seq 64 auth 64</title>A</text>
<text x="835.0" y="554.6" class="base" fill="#006400"><title>/2 seq 65 auth 65</title>U</text>
<path d="M501.6,433.8 L545.1,413.5" class="feature-callout" stroke="#047857" opacity="0.60"/>
<text x="545.1" y="413.5" class="feature-label" text-anchor="start" fill="#047857">U2/U6 helix I nt 26-30</text>
<path d="M543.8,260.7 L564.1,217.2" class="feature-callout" stroke="#0b6e2d" opacity="0.54"/>
<text x="564.1" y="217.2" class="feature-label" text-anchor="start" fill="#0b6e2d">BP pairing nt 32-41</text>
<path d="M749.6,444.6 L708.1,468.6" class="feature-callout" stroke="#167a38" opacity="0.46"/>
<text x="708.1" y="468.6" class="feature-label" text-anchor="end" fill="#167a38">stem IIa nt 46-65</text>
<text x="70" y="739.0" class="label" style="font-size:15px">Feature overlays</text>
<circle cx="77.0" cy="761.0" r="7" fill="#047857" opacity="0.28"/>
<text x="90.0" y="765.0" class="small">U2 U6 helix I partner</text>
<circle cx="287.0" cy="761.0" r="7" fill="#0b6e2d" opacity="0.28"/>
<text x="300.0" y="765.0" class="small">U2 branchpoint pairing region</text>
<circle cx="497.0" cy="761.0" r="7" fill="#167a38" opacity="0.28"/>
<text x="510.0" y="765.0" class="small">U2 stem IIa</text>
</svg>