<svg xmlns="http://www.w3.org/2000/svg" width="1850" height="864" viewBox="0 0 1850 864">
<style>
text{font-family:Arial,Helvetica,sans-serif} .base{font-size:12px;font-weight:700;text-anchor:middle;dominant-baseline:middle}
.label{font-size:20px;font-weight:700;fill:#111827}.small{font-size:12px;fill:#475569}.feature-label{font-size:12px;font-weight:700;paint-order:stroke;stroke:#fff;stroke-width:4px;stroke-linejoin:round}.feature-callout{stroke-width:1;stroke-dasharray:2 3;fill:none}.bp{stroke:#111827;stroke-width:1.4}.backbone{stroke:#cbd5e1;stroke-width:3;fill:none}.missing{stroke:#94a3b8;stroke-width:3;stroke-dasharray:6 7;fill:none}.inter{stroke:#64748b;stroke-dasharray:5 5;fill:none;opacity:.42}
</style>
<rect width="100%" height="100%" fill="#ffffff"/>
<text x="70" y="40" class="label">7EVO RNA 2D panel using R2DT layouts</text>
<text x="70" y="63" class="small">stage U2 snRNP; Human; 2.5 A; 2024</text>
<text x="70" y="80" class="small">Per-chain R2DT/RNApuzzler layouts; dashed backbones mark unresolved sequence-record residues; inter-RNA base pairs are clustered from FR3D output.</text>
<rect x="70.0" y="92.0" width="820.0" height="520.0" rx="8" fill="#f8fafc" stroke="#e2e8f0"/>
<text x="88.0" y="120.0" class="label" style="font-size:16px;fill:#006400">U2 snRNA /H -&gt; 2</text>
<polyline points="125.0,484.7 140.3,484.7 155.6,484.7 170.9,484.7 186.2,484.7 201.5,484.7 216.8,484.7 232.1,484.7 247.3,484.7 262.6,484.7 262.6,469.4 255.9,455.7 262.6,441.9 262.6,426.6 262.6,411.3 262.6,396.1 262.6,380.8 254.8,367.6 259.4,353.0 273.3,346.8 287.3,353.0 291.9,367.6 284.1,380.8 284.1,396.1 284.1,411.3 284.1,426.6 284.1,441.9 290.8,455.7 284.1,469.4 284.1,484.7 299.3,484.7 314.6,484.7 329.9,484.7 345.2,484.7 345.2,469.4 345.2,454.1 345.2,438.8 333.8,428.6 330.2,413.8 335.7,399.5 348.3,390.8 363.6,390.8 376.2,399.5 381.6,413.8 378.0,428.6 366.6,438.8 366.6,454.1 366.6,469.4 366.6,484.7 381.9,484.7 397.2,484.7 397.2,469.4 397.2,454.1 391.7,439.9 400.3,427.2 415.6,427.2 424.2,439.9 418.6,454.1 418.6,469.4 418.6,484.7 433.9,484.7 449.2,484.7 464.5,484.7 479.8,484.7 495.1,484.7 510.4,484.7 525.7,484.7 541.0,484.7 556.3,484.7 571.6,484.7 586.9,484.7 602.2,484.7 617.5,484.7 632.7,484.7 648.0,484.7 663.3,484.7 663.3,469.4 663.3,454.1 654.7,441.5 657.8,426.5 670.6,418.2 676.5,404.1 682.5,390.0 675.5,376.4 677.2,361.2 686.9,349.3 701.5,344.8 716.2,349.0 728.9,340.4 741.6,331.9 754.3,323.3 763.0,310.8 778.3,310.9 786.8,323.6 781.1,337.8 766.2,341.1 753.5,349.6 740.9,358.2 728.2,366.7 726.5,381.9 716.8,393.7 702.2,398.3 696.3,412.4 690.3,426.5 693.4,441.5 684.7,454.1 684.7,469.4 684.7,484.7 700.0,484.7 745.9,484.7 791.8,484.7 791.8,469.4 791.8,454.1 785.1,440.4 791.8,426.6 791.8,411.3 791.8,396.1 785.1,382.3 791.8,368.6 791.8,353.3 791.8,338.0 791.8,322.7 791.8,307.4 778.9,299.2 771.1,286.1 770.0,270.8 776.0,256.7 787.6,246.8 802.5,243.3 817.4,246.8 829.0,256.7 835.0,270.8 834.0,286.1 826.1,299.2 813.2,307.4 813.2,322.7 813.2,338.0 813.2,353.3 813.2,368.6 819.9,382.3 813.2,396.1 826.5,403.7 813.2,411.3 813.2,426.6 819.9,440.4 813.2,454.1 813.2,469.4 813.2,484.7" class="backbone"/>
<path d="M88.0,484.7 L125.0,484.7" class="missing"><title>missing 5-prime /H sequence residues 1-11 (11 nt)</title></path>
<text x="88.0" y="476.7" text-anchor="start" class="small" fill="#64748b">missing 5-prime 11 nt</text>
<path d="M813.2,484.7 L813.2,520.7" class="missing"><title>missing 3-prime /H sequence residues 185-188 (4 nt)</title></path>
<text x="813.2" y="512.7" text-anchor="end" class="small" fill="#64748b">missing 3-prime 4 nt</text>
<path d="M155.6,484.7 Q163.2,448.7 170.9,484.7" class="missing"><title>missing /H sequence residues 15-18 (4 nt)</title></path>
<path d="M381.9,484.7 Q389.6,448.7 397.2,484.7" class="missing"><title>missing /H sequence residues 66-68 (3 nt)</title></path>
<path d="M400.3,427.2 Q407.9,391.2 415.6,427.2" class="missing"><title>missing /H sequence residues 74-78 (5 nt)</title></path>
<path d="M418.6,484.7 Q426.3,448.7 433.9,484.7" class="missing"><title>missing /H sequence residues 84-96 (13 nt)</title></path>
<line x1="140.3" y1="484.7" x2="186.2" y2="484.7" class="bp"><title>cWW auth 13-20; seq 13-20</title></line>
<line x1="155.6" y1="484.7" x2="170.9" y2="484.7" class="bp"><title>cWW auth 14-19; seq 14-19</title></line>
<line x1="170.9" y1="484.7" x2="155.6" y2="484.7" class="bp"><title>cWW auth 19-14; seq 19-14</title></line>
<line x1="186.2" y1="484.7" x2="140.3" y2="484.7" class="bp"><title>cWW auth 20-13; seq 20-13</title></line>
<line x1="262.6" y1="484.7" x2="284.1" y2="484.7" class="bp"><title>cWW auth 25-45; seq 25-45</title></line>
<line x1="262.6" y1="469.4" x2="284.1" y2="469.4" class="bp"><title>cWW auth 26-44; seq 26-44</title></line>
<line x1="262.6" y1="441.9" x2="284.1" y2="441.9" class="bp"><title>cWW auth 28-42; seq 28-42</title></line>
<line x1="262.6" y1="426.6" x2="284.1" y2="426.6" class="bp"><title>cWW auth 29-41; seq 29-41</title></line>
<line x1="262.6" y1="411.3" x2="284.1" y2="411.3" class="bp"><title>cWW auth 30-40; seq 30-40</title></line>
<line x1="262.6" y1="396.1" x2="284.1" y2="396.1" class="bp"><title>cWW auth 31-39; seq 31-39</title></line>
<line x1="262.6" y1="380.8" x2="284.1" y2="380.8" class="bp"><title>cWW auth 32-38; seq 32-38</title></line>
<line x1="284.1" y1="380.8" x2="262.6" y2="380.8" class="bp"><title>cWW auth 38-32; seq 38-32</title></line>
<line x1="284.1" y1="396.1" x2="262.6" y2="396.1" class="bp"><title>cWW auth 39-31; seq 39-31</title></line>
<line x1="284.1" y1="411.3" x2="262.6" y2="411.3" class="bp"><title>cWW auth 40-30; seq 40-30</title></line>
<line x1="284.1" y1="426.6" x2="262.6" y2="426.6" class="bp"><title>cWW auth 41-29; seq 41-29</title></line>
<line x1="284.1" y1="441.9" x2="262.6" y2="441.9" class="bp"><title>cWW auth 42-28; seq 42-28</title></line>
<line x1="284.1" y1="469.4" x2="262.6" y2="469.4" class="bp"><title>cWW auth 44-26; seq 44-26</title></line>
<line x1="284.1" y1="484.7" x2="262.6" y2="484.7" class="bp"><title>cWW auth 45-25; seq 45-25</title></line>
<line x1="345.2" y1="484.7" x2="366.6" y2="484.7" class="bp"><title>cWW auth 49-64; seq 49-64</title></line>
<line x1="345.2" y1="469.4" x2="366.6" y2="469.4" class="bp"><title>cWW auth 50-63; seq 50-63</title></line>
<line x1="345.2" y1="454.1" x2="366.6" y2="454.1" class="bp"><title>cWW auth 51-62; seq 51-62</title></line>
<line x1="345.2" y1="438.8" x2="366.6" y2="438.8" class="bp"><title>cWW auth 52-61; seq 52-61</title></line>
<line x1="330.2" y1="413.8" x2="381.6" y2="413.8" class="bp"><title>tSH auth 54-59; seq 54-59</title></line>
<line x1="381.6" y1="413.8" x2="330.2" y2="413.8" class="bp"><title>tHS auth 59-54; seq 59-54</title></line>
<line x1="366.6" y1="438.8" x2="345.2" y2="438.8" class="bp"><title>cWW auth 61-52; seq 61-52</title></line>
<line x1="366.6" y1="454.1" x2="345.2" y2="454.1" class="bp"><title>cWW auth 62-51; seq 62-51</title></line>
<line x1="366.6" y1="469.4" x2="345.2" y2="469.4" class="bp"><title>cWW auth 63-50; seq 63-50</title></line>
<line x1="366.6" y1="484.7" x2="345.2" y2="484.7" class="bp"><title>cWW auth 64-49; seq 64-49</title></line>
<line x1="397.2" y1="484.7" x2="418.6" y2="484.7" class="bp"><title>cWW auth 69-85; seq 69-83</title></line>
<line x1="397.2" y1="469.4" x2="418.6" y2="469.4" class="bp"><title>cWW auth 70-84; seq 70-82</title></line>
<line x1="397.2" y1="454.1" x2="418.6" y2="454.1" class="bp"><title>cWW auth 71-83; seq 71-81</title></line>
<line x1="391.7" y1="439.9" x2="424.2" y2="439.9" class="bp"><title>cWW auth 72-82; seq 72-80</title></line>
<line x1="400.3" y1="427.2" x2="415.6" y2="427.2" class="bp"><title>cWW auth 73-81; seq 73-79</title></line>
<line x1="415.6" y1="427.2" x2="400.3" y2="427.2" class="bp"><title>cWW auth 81-73; seq 79-73</title></line>
<line x1="424.2" y1="439.9" x2="391.7" y2="439.9" class="bp"><title>cWW auth 82-72; seq 80-72</title></line>
<line x1="418.6" y1="454.1" x2="397.2" y2="454.1" class="bp"><title>cWW auth 83-71; seq 81-71</title></line>
<line x1="418.6" y1="469.4" x2="397.2" y2="469.4" class="bp"><title>cWW auth 84-70; seq 82-70</title></line>
<line x1="418.6" y1="484.7" x2="397.2" y2="484.7" class="bp"><title>cWW auth 85-69; seq 83-69</title></line>
<line x1="663.3" y1="484.7" x2="684.7" y2="484.7" class="bp"><title>cWW auth 112-144; seq 112-144</title></line>
<line x1="663.3" y1="469.4" x2="684.7" y2="469.4" class="bp"><title>cWW auth 113-143; seq 113-143</title></line>
<line x1="663.3" y1="454.1" x2="684.7" y2="454.1" class="bp"><title>cWW auth 114-142; seq 114-142</title></line>
<line x1="670.6" y1="418.2" x2="690.3" y2="426.5" class="bp"><title>cWW auth 117-140; seq 117-140</title></line>
<line x1="676.5" y1="404.1" x2="696.3" y2="412.4" class="bp"><title>cWW auth 118-139; seq 118-139</title></line>
<line x1="682.5" y1="390.0" x2="702.2" y2="398.3" class="bp"><title>cWW auth 119-138; seq 119-138</title></line>
<line x1="716.2" y1="349.0" x2="728.2" y2="366.7" class="bp"><title>cWW auth 124-135; seq 124-135</title></line>
<line x1="728.9" y1="340.4" x2="740.9" y2="358.2" class="bp"><title>cWW auth 125-134; seq 125-134</title></line>
<line x1="741.6" y1="331.9" x2="753.5" y2="349.6" class="bp"><title>cWW auth 126-133; seq 126-133</title></line>
<line x1="754.3" y1="323.3" x2="766.2" y2="341.1" class="bp"><title>cWW auth 127-132; seq 127-132</title></line>
<line x1="766.2" y1="341.1" x2="754.3" y2="323.3" class="bp"><title>cWW auth 132-127; seq 132-127</title></line>
<line x1="753.5" y1="349.6" x2="741.6" y2="331.9" class="bp"><title>cWW auth 133-126; seq 133-126</title></line>
<line x1="740.9" y1="358.2" x2="728.9" y2="340.4" class="bp"><title>cWW auth 134-125; seq 134-125</title></line>
<line x1="728.2" y1="366.7" x2="716.2" y2="349.0" class="bp"><title>cWW auth 135-124; seq 135-124</title></line>
<line x1="702.2" y1="398.3" x2="682.5" y2="390.0" class="bp"><title>cWW auth 138-119; seq 138-119</title></line>
<line x1="696.3" y1="412.4" x2="676.5" y2="404.1" class="bp"><title>cWW auth 139-118; seq 139-118</title></line>
<line x1="690.3" y1="426.5" x2="670.6" y2="418.2" class="bp"><title>cWW auth 140-117; seq 140-117</title></line>
<line x1="684.7" y1="454.1" x2="663.3" y2="454.1" class="bp"><title>cWW auth 142-114; seq 142-114</title></line>
<line x1="684.7" y1="469.4" x2="663.3" y2="469.4" class="bp"><title>cWW auth 143-113; seq 143-113</title></line>
<line x1="684.7" y1="484.7" x2="663.3" y2="484.7" class="bp"><title>cWW auth 144-112; seq 144-112</title></line>
<line x1="791.8" y1="484.7" x2="813.2" y2="484.7" class="bp"><title>cWW auth 147-184; seq 147-184</title></line>
<line x1="791.8" y1="469.4" x2="813.2" y2="469.4" class="bp"><title>cWW auth 148-183; seq 148-183</title></line>
<line x1="791.8" y1="454.1" x2="813.2" y2="454.1" class="bp"><title>cWW auth 149-182; seq 149-182</title></line>
<line x1="791.8" y1="426.6" x2="813.2" y2="426.6" class="bp"><title>cWW auth 151-180; seq 151-180</title></line>
<line x1="791.8" y1="411.3" x2="813.2" y2="411.3" class="bp"><title>cWW auth 152-179; seq 152-179</title></line>
<line x1="791.8" y1="396.1" x2="813.2" y2="396.1" class="bp"><title>cWW auth 153-177; seq 153-177</title></line>
<line x1="791.8" y1="396.1" x2="826.5" y2="403.7" class="bp"><title>cWW auth 153-178; seq 153-178</title></line>
<line x1="791.8" y1="368.6" x2="813.2" y2="368.6" class="bp"><title>cWW auth 155-175; seq 155-175</title></line>
<line x1="791.8" y1="353.3" x2="813.2" y2="353.3" class="bp"><title>cWW auth 156-174; seq 156-174</title></line>
<line x1="791.8" y1="338.0" x2="813.2" y2="338.0" class="bp"><title>cWW auth 157-173; seq 157-173</title></line>
<line x1="791.8" y1="322.7" x2="813.2" y2="322.7" class="bp"><title>cWW auth 158-172; seq 158-172</title></line>
<line x1="791.8" y1="307.4" x2="813.2" y2="307.4" class="bp"><title>cWW auth 159-171; seq 159-171</title></line>
<line x1="813.2" y1="307.4" x2="791.8" y2="307.4" class="bp"><title>cWW auth 171-159; seq 171-159</title></line>
<line x1="813.2" y1="322.7" x2="791.8" y2="322.7" class="bp"><title>cWW auth 172-158; seq 172-158</title></line>
<line x1="813.2" y1="338.0" x2="791.8" y2="338.0" class="bp"><title>cWW auth 173-157; seq 173-157</title></line>
<line x1="813.2" y1="353.3" x2="791.8" y2="353.3" class="bp"><title>cWW auth 174-156; seq 174-156</title></line>
<line x1="813.2" y1="368.6" x2="791.8" y2="368.6" class="bp"><title>cWW auth 175-155; seq 175-155</title></line>
<line x1="813.2" y1="396.1" x2="791.8" y2="396.1" class="bp"><title>cWW auth 177-153; seq 177-153</title></line>
<line x1="826.5" y1="403.7" x2="791.8" y2="396.1" class="bp"><title>cWW auth 178-153; seq 178-153</title></line>
<line x1="813.2" y1="411.3" x2="791.8" y2="411.3" class="bp"><title>cWW auth 179-152; seq 179-152</title></line>
<line x1="813.2" y1="426.6" x2="791.8" y2="426.6" class="bp"><title>cWW auth 180-151; seq 180-151</title></line>
<line x1="813.2" y1="454.1" x2="791.8" y2="454.1" class="bp"><title>cWW auth 182-149; seq 182-149</title></line>
<line x1="813.2" y1="469.4" x2="791.8" y2="469.4" class="bp"><title>cWW auth 183-148; seq 183-148</title></line>
<line x1="813.2" y1="484.7" x2="791.8" y2="484.7" class="bp"><title>cWW auth 184-147; seq 184-147</title></line>
<circle cx="262.6" cy="469.4" r="9.2" fill="#047857" opacity="0.28"><title>U2/U6 helix I partner; confidence high</title></circle>
<circle cx="255.9" cy="455.7" r="9.2" fill="#047857" opacity="0.28"><title>U2/U6 helix I partner; confidence high</title></circle>
<circle cx="262.6" cy="441.9" r="9.2" fill="#047857" opacity="0.28"><title>U2/U6 helix I partner; confidence high</title></circle>
<circle cx="262.6" cy="426.6" r="9.2" fill="#047857" opacity="0.28"><title>U2/U6 helix I partner; confidence high</title></circle>
<circle cx="262.6" cy="411.3" r="9.2" fill="#047857" opacity="0.28"><title>U2/U6 helix I partner; confidence high</title></circle>
<circle cx="262.6" cy="380.8" r="9.2" fill="#0b6e2d" opacity="0.22"><title>branchpoint pairing region; confidence medium</title></circle>
<circle cx="254.8" cy="367.6" r="9.2" fill="#0b6e2d" opacity="0.22"><title>branchpoint pairing region; confidence medium</title></circle>
<circle cx="259.4" cy="353.0" r="9.2" fill="#0b6e2d" opacity="0.22"><title>branchpoint pairing region; confidence medium</title></circle>
<circle cx="273.3" cy="346.8" r="9.2" fill="#0b6e2d" opacity="0.22"><title>branchpoint pairing region; confidence medium</title></circle>
<circle cx="287.3" cy="353.0" r="9.2" fill="#0b6e2d" opacity="0.22"><title>branchpoint pairing region; confidence medium</title></circle>
<circle cx="291.9" cy="367.6" r="9.2" fill="#0b6e2d" opacity="0.22"><title>branchpoint pairing region; confidence medium</title></circle>
<circle cx="284.1" cy="380.8" r="9.2" fill="#0b6e2d" opacity="0.22"><title>branchpoint pairing region; confidence medium</title></circle>
<circle cx="284.1" cy="396.1" r="9.2" fill="#0b6e2d" opacity="0.22"><title>branchpoint pairing region; confidence medium</title></circle>
<circle cx="284.1" cy="411.3" r="9.2" fill="#0b6e2d" opacity="0.22"><title>branchpoint pairing region; confidence medium</title></circle>
<circle cx="284.1" cy="426.6" r="9.2" fill="#0b6e2d" opacity="0.22"><title>branchpoint pairing region; confidence medium</title></circle>
<circle cx="299.3" cy="484.7" r="9.2" fill="#167a38" opacity="0.14"><title>stem IIa; confidence low</title></circle>
<circle cx="314.6" cy="484.7" r="9.2" fill="#167a38" opacity="0.14"><title>stem IIa; confidence low</title></circle>
<circle cx="329.9" cy="484.7" r="9.2" fill="#167a38" opacity="0.14"><title>stem IIa; confidence low</title></circle>
<circle cx="345.2" cy="484.7" r="9.2" fill="#167a38" opacity="0.14"><title>stem IIa; confidence low</title></circle>
<circle cx="345.2" cy="469.4" r="9.2" fill="#167a38" opacity="0.14"><title>stem IIa; confidence low</title></circle>
<circle cx="345.2" cy="454.1" r="9.2" fill="#167a38" opacity="0.14"><title>stem IIa; confidence low</title></circle>
<circle cx="345.2" cy="438.8" r="9.2" fill="#167a38" opacity="0.14"><title>stem IIa; confidence low</title></circle>
<circle cx="333.8" cy="428.6" r="9.2" fill="#167a38" opacity="0.14"><title>stem IIa; confidence low</title></circle>
<circle cx="330.2" cy="413.8" r="9.2" fill="#167a38" opacity="0.14"><title>stem IIa; confidence low</title></circle>
<circle cx="335.7" cy="399.5" r="9.2" fill="#167a38" opacity="0.14"><title>stem IIa; confidence low</title></circle>
<circle cx="348.3" cy="390.8" r="9.2" fill="#167a38" opacity="0.14"><title>stem IIa; confidence low</title></circle>
<circle cx="363.6" cy="390.8" r="9.2" fill="#167a38" opacity="0.14"><title>stem IIa; confidence low</title></circle>
<circle cx="376.2" cy="399.5" r="9.2" fill="#167a38" opacity="0.14"><title>stem IIa; confidence low</title></circle>
<circle cx="381.6" cy="413.8" r="9.2" fill="#167a38" opacity="0.14"><title>stem IIa; confidence low</title></circle>
<circle cx="378.0" cy="428.6" r="9.2" fill="#167a38" opacity="0.14"><title>stem IIa; confidence low</title></circle>
<circle cx="366.6" cy="438.8" r="9.2" fill="#167a38" opacity="0.14"><title>stem IIa; confidence low</title></circle>
<circle cx="366.6" cy="454.1" r="9.2" fill="#167a38" opacity="0.14"><title>stem IIa; confidence low</title></circle>
<circle cx="366.6" cy="469.4" r="9.2" fill="#167a38" opacity="0.14"><title>stem IIa; confidence low</title></circle>
<circle cx="366.6" cy="484.7" r="9.2" fill="#167a38" opacity="0.14"><title>stem IIa; confidence low</title></circle>
<circle cx="381.9" cy="484.7" r="9.2" fill="#167a38" opacity="0.14"><title>stem IIa; confidence low</title></circle>
<circle cx="397.2" cy="484.7" r="9.2" fill="#167a38" opacity="0.14"><title>stem IIa; confidence low</title></circle>
<circle cx="397.2" cy="469.4" r="9.2" fill="#167a38" opacity="0.14"><title>stem IIa; confidence low</title></circle>
<circle cx="397.2" cy="454.1" r="9.2" fill="#167a38" opacity="0.14"><title>stem IIa; confidence low</title></circle>
<circle cx="391.7" cy="439.9" r="9.2" fill="#167a38" opacity="0.14"><title>stem IIa; confidence low</title></circle>
<circle cx="400.3" cy="427.2" r="9.2" fill="#167a38" opacity="0.14"><title>stem IIa; confidence low</title></circle>
<circle cx="415.6" cy="427.2" r="9.2" fill="#167a38" opacity="0.14"><title>stem IIa; confidence low</title></circle>
<circle cx="424.2" cy="439.9" r="9.2" fill="#167a38" opacity="0.14"><title>stem IIa; confidence low</title></circle>
<circle cx="464.5" cy="484.7" r="9.2" fill="#2f8b4d" opacity="0.22"><title>Sm site; confidence medium</title></circle>
<circle cx="479.8" cy="484.7" r="9.2" fill="#2f8b4d" opacity="0.22"><title>Sm site; confidence medium</title></circle>
<circle cx="495.1" cy="484.7" r="9.2" fill="#2f8b4d" opacity="0.22"><title>Sm site; confidence medium</title></circle>
<circle cx="510.4" cy="484.7" r="9.2" fill="#2f8b4d" opacity="0.22"><title>Sm site; confidence medium</title></circle>
<circle cx="525.7" cy="484.7" r="9.2" fill="#2f8b4d" opacity="0.22"><title>Sm site; confidence medium</title></circle>
<circle cx="541.0" cy="484.7" r="9.2" fill="#2f8b4d" opacity="0.22"><title>Sm site; confidence medium</title></circle>
<circle cx="556.3" cy="484.7" r="9.2" fill="#2f8b4d" opacity="0.22"><title>Sm site; confidence medium</title></circle>
<text x="125.0" y="484.7" class="base" fill="#006400"><title>/H seq 12 auth 12</title>G</text>
<text x="140.3" y="484.7" class="base" fill="#006400"><title>/H seq 13 auth 13</title>C</text>
<text x="155.6" y="484.7" class="base" fill="#006400"><title>/H seq 14 auth 14</title>C</text>
<text x="170.9" y="484.7" class="base" fill="#006400"><title>/H seq 19 auth 19</title>G</text>
<text x="186.2" y="484.7" class="base" fill="#006400"><title>/H seq 20 auth 20</title>G</text>
<text x="196.2" y="472.7" class="small" fill="#94a3b8">20</text>
<text x="201.5" y="484.7" class="base" fill="#006400"><title>/H seq 21 auth 21</title>C</text>
<text x="216.8" y="484.7" class="base" fill="#006400"><title>/H seq 22 auth 22</title>U</text>
<text x="232.1" y="484.7" class="base" fill="#006400"><title>/H seq 23 auth 23</title>A</text>
<text x="247.3" y="484.7" class="base" fill="#006400"><title>/H seq 24 auth 24</title>A</text>
<text x="262.6" y="484.7" class="base" fill="#006400"><title>/H seq 25 auth 25</title>G</text>
<text x="262.6" y="469.4" class="base" fill="#006400"><title>/H seq 26 auth 26</title>A</text>
<text x="255.9" y="455.7" class="base" fill="#006400"><title>/H seq 27 auth 27</title>U</text>
<text x="262.6" y="441.9" class="base" fill="#006400"><title>/H seq 28 auth 28</title>C</text>
<text x="262.6" y="426.6" class="base" fill="#006400"><title>/H seq 29 auth 29</title>A</text>
<text x="262.6" y="411.3" class="base" fill="#006400"><title>/H seq 30 auth 30</title>A</text>
<text x="272.6" y="399.3" class="small" fill="#94a3b8">30</text>
<text x="262.6" y="396.1" class="base" fill="#006400"><title>/H seq 31 auth 31</title>G</text>
<text x="262.6" y="380.8" class="base" fill="#006400"><title>/H seq 32 auth 32</title>U</text>
<text x="254.8" y="367.6" class="base" fill="#006400"><title>/H seq 33 auth 33</title>G</text>
<text x="259.4" y="353.0" class="base" fill="#006400"><title>/H seq 34 auth 34</title>U</text>
<text x="273.3" y="346.8" class="base" fill="#006400"><title>/H seq 35 auth 35</title>A</text>
<text x="287.3" y="353.0" class="base" fill="#006400"><title>/H seq 36 auth 36</title>G</text>
<text x="291.9" y="367.6" class="base" fill="#006400"><title>/H seq 37 auth 37</title>U</text>
<text x="284.1" y="380.8" class="base" fill="#006400"><title>/H seq 38 auth 38</title>A</text>
<text x="284.1" y="396.1" class="base" fill="#006400"><title>/H seq 39 auth 39</title>U</text>
<text x="284.1" y="411.3" class="base" fill="#006400"><title>/H seq 40 auth 40</title>C</text>
<text x="294.1" y="399.3" class="small" fill="#94a3b8">40</text>
<text x="284.1" y="426.6" class="base" fill="#006400"><title>/H seq 41 auth 41</title>U</text>
<text x="284.1" y="441.9" class="base" fill="#006400"><title>/H seq 42 auth 42</title>G</text>
<text x="290.8" y="455.7" class="base" fill="#006400"><title>/H seq 43 auth 43</title>U</text>
<text x="284.1" y="469.4" class="base" fill="#006400"><title>/H seq 44 auth 44</title>U</text>
<text x="284.1" y="484.7" class="base" fill="#006400"><title>/H seq 45 auth 45</title>C</text>
<text x="299.3" y="484.7" class="base" fill="#006400"><title>/H seq 46 auth 46</title>U</text>
<text x="314.6" y="484.7" class="base" fill="#006400"><title>/H seq 47 auth 47</title>U</text>
<text x="329.9" y="484.7" class="base" fill="#006400"><title>/H seq 48 auth 48</title>A</text>
<text x="345.2" y="484.7" class="base" fill="#006400"><title>/H seq 49 auth 49</title>U</text>
<text x="345.2" y="469.4" class="base" fill="#006400"><title>/H seq 50 auth 50</title>C</text>
<text x="355.2" y="457.4" class="small" fill="#94a3b8">50</text>
<text x="345.2" y="454.1" class="base" fill="#006400"><title>/H seq 51 auth 51</title>A</text>
<text x="345.2" y="438.8" class="base" fill="#006400"><title>/H seq 52 auth 52</title>G</text>
<text x="333.8" y="428.6" class="base" fill="#006400"><title>/H seq 53 auth 53</title>U</text>
<text x="330.2" y="413.8" class="base" fill="#006400"><title>/H seq 54 auth 54</title>U</text>
<text x="335.7" y="399.5" class="base" fill="#006400"><title>/H seq 55 auth 55</title>U</text>
<text x="348.3" y="390.8" class="base" fill="#006400"><title>/H seq 56 auth 56</title>A</text>
<text x="363.6" y="390.8" class="base" fill="#006400"><title>/H seq 57 auth 57</title>A</text>
<text x="376.2" y="399.5" class="base" fill="#006400"><title>/H seq 58 auth 58</title>U</text>
<text x="381.6" y="413.8" class="base" fill="#006400"><title>/H seq 59 auth 59</title>A</text>
<text x="378.0" y="428.6" class="base" fill="#006400"><title>/H seq 60 auth 60</title>U</text>
<text x="388.0" y="416.6" class="small" fill="#94a3b8">60</text>
<text x="366.6" y="438.8" class="base" fill="#006400"><title>/H seq 61 auth 61</title>C</text>
<text x="366.6" y="454.1" class="base" fill="#006400"><title>/H seq 62 auth 62</title>U</text>
<text x="366.6" y="469.4" class="base" fill="#006400"><title>/H seq 63 auth 63</title>G</text>
<text x="366.6" y="484.7" class="base" fill="#006400"><title>/H seq 64 auth 64</title>A</text>
<text x="381.9" y="484.7" class="base" fill="#006400"><title>/H seq 65 auth 65</title>U</text>
<text x="397.2" y="484.7" class="base" fill="#006400"><title>/H seq 69 auth 69</title>U</text>
<text x="397.2" y="469.4" class="base" fill="#006400"><title>/H seq 70 auth 70</title>C</text>
<text x="407.2" y="457.4" class="small" fill="#94a3b8">70</text>
<text x="397.2" y="454.1" class="base" fill="#006400"><title>/H seq 71 auth 71</title>C</text>
<text x="391.7" y="439.9" class="base" fill="#006400"><title>/H seq 72 auth 72</title>U</text>
<text x="400.3" y="427.2" class="base" fill="#006400"><title>/H seq 73 auth 73</title>C</text>
<text x="415.6" y="427.2" class="base" fill="#006400"><title>/H seq 79 auth 81</title>G</text>
<text x="424.2" y="439.9" class="base" fill="#006400"><title>/H seq 80 auth 82</title>A</text>
<text x="434.2" y="427.9" class="small" fill="#94a3b8">80</text>
<text x="418.6" y="454.1" class="base" fill="#006400"><title>/H seq 81 auth 83</title>G</text>
<text x="418.6" y="469.4" class="base" fill="#006400"><title>/H seq 82 auth 84</title>G</text>
<text x="418.6" y="484.7" class="base" fill="#006400"><title>/H seq 83 auth 85</title>A</text>
<text x="433.9" y="484.7" class="base" fill="#006400"><title>/H seq 97 auth 97</title>G</text>
<text x="449.2" y="484.7" class="base" fill="#006400"><title>/H seq 98 auth 98</title>G</text>
<text x="464.5" y="484.7" class="base" fill="#006400"><title>/H seq 99 auth 99</title>A</text>
<text x="479.8" y="484.7" class="base" fill="#006400"><title>/H seq 100 auth 100</title>U</text>
<text x="489.8" y="472.7" class="small" fill="#94a3b8">100</text>
<text x="495.1" y="484.7" class="base" fill="#006400"><title>/H seq 101 auth 101</title>U</text>
<text x="510.4" y="484.7" class="base" fill="#006400"><title>/H seq 102 auth 102</title>U</text>
<text x="525.7" y="484.7" class="base" fill="#006400"><title>/H seq 103 auth 103</title>U</text>
<text x="541.0" y="484.7" class="base" fill="#006400"><title>/H seq 104 auth 104</title>U</text>
<text x="556.3" y="484.7" class="base" fill="#006400"><title>/H seq 105 auth 105</title>G</text>
<text x="571.6" y="484.7" class="base" fill="#006400"><title>/H seq 106 auth 106</title>G</text>
<text x="586.9" y="484.7" class="base" fill="#006400"><title>/H seq 107 auth 107</title>A</text>
<text x="602.2" y="484.7" class="base" fill="#006400"><title>/H seq 108 auth 108</title>G</text>
<text x="617.5" y="484.7" class="base" fill="#006400"><title>/H seq 109 auth 109</title>C</text>
<text x="632.7" y="484.7" class="base" fill="#006400"><title>/H seq 110 auth 110</title>A</text>
<text x="642.7" y="472.7" class="small" fill="#94a3b8">110</text>
<text x="648.0" y="484.7" class="base" fill="#006400"><title>/H seq 111 auth 111</title>G</text>
<text x="663.3" y="484.7" class="base" fill="#006400"><title>/H seq 112 auth 112</title>G</text>
<text x="663.3" y="469.4" class="base" fill="#006400"><title>/H seq 113 auth 113</title>G</text>
<text x="663.3" y="454.1" class="base" fill="#006400"><title>/H seq 114 auth 114</title>A</text>
<text x="654.7" y="441.5" class="base" fill="#006400"><title>/H seq 115 auth 115</title>G</text>
<text x="657.8" y="426.5" class="base" fill="#006400"><title>/H seq 116 auth 116</title>A</text>
<text x="670.6" y="418.2" class="base" fill="#006400"><title>/H seq 117 auth 117</title>U</text>
<text x="676.5" y="404.1" class="base" fill="#006400"><title>/H seq 118 auth 118</title>G</text>
<text x="682.5" y="390.0" class="base" fill="#006400"><title>/H seq 119 auth 119</title>G</text>
<text x="675.5" y="376.4" class="base" fill="#006400"><title>/H seq 120 auth 120</title>A</text>
<text x="685.5" y="364.4" class="small" fill="#94a3b8">120</text>
<text x="677.2" y="361.2" class="base" fill="#006400"><title>/H seq 121 auth 121</title>A</text>
<text x="686.9" y="349.3" class="base" fill="#006400"><title>/H seq 122 auth 122</title>U</text>
<text x="701.5" y="344.8" class="base" fill="#006400"><title>/H seq 123 auth 123</title>A</text>
<text x="716.2" y="349.0" class="base" fill="#006400"><title>/H seq 124 auth 124</title>G</text>
<text x="728.9" y="340.4" class="base" fill="#006400"><title>/H seq 125 auth 125</title>G</text>
<text x="741.6" y="331.9" class="base" fill="#006400"><title>/H seq 126 auth 126</title>A</text>
<text x="754.3" y="323.3" class="base" fill="#006400"><title>/H seq 127 auth 127</title>G</text>
<text x="763.0" y="310.8" class="base" fill="#006400"><title>/H seq 128 auth 128</title>C</text>
<text x="778.3" y="310.9" class="base" fill="#006400"><title>/H seq 129 auth 129</title>U</text>
<text x="786.8" y="323.6" class="base" fill="#006400"><title>/H seq 130 auth 130</title>U</text>
<text x="796.8" y="311.6" class="small" fill="#94a3b8">130</text>
<text x="781.1" y="337.8" class="base" fill="#006400"><title>/H seq 131 auth 131</title>G</text>
<text x="766.2" y="341.1" class="base" fill="#006400"><title>/H seq 132 auth 132</title>C</text>
<text x="753.5" y="349.6" class="base" fill="#006400"><title>/H seq 133 auth 133</title>U</text>
<text x="740.9" y="358.2" class="base" fill="#006400"><title>/H seq 134 auth 134</title>C</text>
<text x="728.2" y="366.7" class="base" fill="#006400"><title>/H seq 135 auth 135</title>C</text>
<text x="726.5" y="381.9" class="base" fill="#006400"><title>/H seq 136 auth 136</title>G</text>
<text x="716.8" y="393.7" class="base" fill="#006400"><title>/H seq 137 auth 137</title>U</text>
<text x="702.2" y="398.3" class="base" fill="#006400"><title>/H seq 138 auth 138</title>C</text>
<text x="696.3" y="412.4" class="base" fill="#006400"><title>/H seq 139 auth 139</title>C</text>
<text x="690.3" y="426.5" class="base" fill="#006400"><title>/H seq 140 auth 140</title>A</text>
<text x="700.3" y="414.5" class="small" fill="#94a3b8">140</text>
<text x="693.4" y="441.5" class="base" fill="#006400"><title>/H seq 141 auth 141</title>C</text>
<text x="684.7" y="454.1" class="base" fill="#006400"><title>/H seq 142 auth 142</title>U</text>
<text x="684.7" y="469.4" class="base" fill="#006400"><title>/H seq 143 auth 143</title>C</text>
<text x="684.7" y="484.7" class="base" fill="#006400"><title>/H seq 144 auth 144</title>C</text>
<text x="700.0" y="484.7" class="base" fill="#006400"><title>/H seq 145 auth 145</title>A</text>
<text x="745.9" y="484.7" class="base" fill="#006400"><title>/H seq 146 auth 146</title>C</text>
<text x="791.8" y="484.7" class="base" fill="#006400"><title>/H seq 147 auth 147</title>G</text>
<text x="791.8" y="469.4" class="base" fill="#006400"><title>/H seq 148 auth 148</title>C</text>
<text x="791.8" y="454.1" class="base" fill="#006400"><title>/H seq 149 auth 149</title>A</text>
<text x="785.1" y="440.4" class="base" fill="#006400"><title>/H seq 150 auth 150</title>U</text>
<text x="795.1" y="428.4" class="small" fill="#94a3b8">150</text>
<text x="791.8" y="426.6" class="base" fill="#006400"><title>/H seq 151 auth 151</title>C</text>
<text x="791.8" y="411.3" class="base" fill="#006400"><title>/H seq 152 auth 152</title>G</text>
<text x="791.8" y="396.1" class="base" fill="#006400"><title>/H seq 153 auth 153</title>A</text>
<text x="785.1" y="382.3" class="base" fill="#006400"><title>/H seq 154 auth 154</title>C</text>
<text x="791.8" y="368.6" class="base" fill="#006400"><title>/H seq 155 auth 155</title>C</text>
<text x="791.8" y="353.3" class="base" fill="#006400"><title>/H seq 156 auth 156</title>U</text>
<text x="791.8" y="338.0" class="base" fill="#006400"><title>/H seq 157 auth 157</title>G</text>
<text x="791.8" y="322.7" class="base" fill="#006400"><title>/H seq 158 auth 158</title>G</text>
<text x="791.8" y="307.4" class="base" fill="#006400"><title>/H seq 159 auth 159</title>U</text>
<text x="778.9" y="299.2" class="base" fill="#006400"><title>/H seq 160 auth 160</title>A</text>
<text x="788.9" y="287.2" class="small" fill="#94a3b8">160</text>
<text x="771.1" y="286.1" class="base" fill="#006400"><title>/H seq 161 auth 161</title>U</text>
<text x="770.0" y="270.8" class="base" fill="#006400"><title>/H seq 162 auth 162</title>U</text>
<text x="776.0" y="256.7" class="base" fill="#006400"><title>/H seq 163 auth 163</title>G</text>
<text x="787.6" y="246.8" class="base" fill="#006400"><title>/H seq 164 auth 164</title>C</text>
<text x="802.5" y="243.3" class="base" fill="#006400"><title>/H seq 165 auth 165</title>A</text>
<text x="817.4" y="246.8" class="base" fill="#006400"><title>/H seq 166 auth 166</title>G</text>
<text x="829.0" y="256.7" class="base" fill="#006400"><title>/H seq 167 auth 167</title>U</text>
<text x="835.0" y="270.8" class="base" fill="#006400"><title>/H seq 168 auth 168</title>A</text>
<text x="834.0" y="286.1" class="base" fill="#006400"><title>/H seq 169 auth 169</title>C</text>
<text x="826.1" y="299.2" class="base" fill="#006400"><title>/H seq 170 auth 170</title>C</text>
<text x="836.1" y="287.2" class="small" fill="#94a3b8">170</text>
<text x="813.2" y="307.4" class="base" fill="#006400"><title>/H seq 171 auth 171</title>U</text>
<text x="813.2" y="322.7" class="base" fill="#006400"><title>/H seq 172 auth 172</title>C</text>
<text x="813.2" y="338.0" class="base" fill="#006400"><title>/H seq 173 auth 173</title>C</text>
<text x="813.2" y="353.3" class="base" fill="#006400"><title>/H seq 174 auth 174</title>A</text>
<text x="813.2" y="368.6" class="base" fill="#006400"><title>/H seq 175 auth 175</title>G</text>
<text x="819.9" y="382.3" class="base" fill="#006400"><title>/H seq 176 auth 176</title>G</text>
<text x="813.2" y="396.1" class="base" fill="#006400"><title>/H seq 177 auth 177</title>A</text>
<text x="826.5" y="403.7" class="base" fill="#006400"><title>/H seq 178 auth 178</title>A</text>
<text x="813.2" y="411.3" class="base" fill="#006400"><title>/H seq 179 auth 179</title>C</text>
<text x="813.2" y="426.6" class="base" fill="#006400"><title>/H seq 180 auth 180</title>G</text>
<text x="823.2" y="414.6" class="small" fill="#94a3b8">180</text>
<text x="819.9" y="440.4" class="base" fill="#006400"><title>/H seq 181 auth 181</title>G</text>
<text x="813.2" y="454.1" class="base" fill="#006400"><title>/H seq 182 auth 182</title>U</text>
<text x="813.2" y="469.4" class="base" fill="#006400"><title>/H seq 183 auth 183</title>G</text>
<text x="813.2" y="484.7" class="base" fill="#006400"><title>/H seq 184 auth 184</title>C</text>
<path d="M261.3,441.0 L241.0,397.5" class="feature-callout" stroke="#047857" opacity="0.60"/>
<text x="241.0" y="397.5" class="feature-label" text-anchor="end" fill="#047857">U2/U6 helix I nt 26-30</text>
<path d="M276.6,378.4 L235.0,354.4" class="feature-callout" stroke="#0b6e2d" opacity="0.54"/>
<text x="235.0" y="354.4" class="feature-label" text-anchor="end" fill="#0b6e2d">BP pairing nt 32-41</text>
<path d="M364.6,446.0 L323.0,422.0" class="feature-callout" stroke="#167a38" opacity="0.46"/>
<text x="323.0" y="422.0" class="feature-label" text-anchor="end" fill="#167a38">stem IIa nt 46-65,69-73,81-82</text>
<path d="M510.4,484.7 L468.8,460.7" class="feature-callout" stroke="#2f8b4d" opacity="0.54"/>
<text x="468.8" y="460.7" class="feature-label" text-anchor="end" fill="#2f8b4d">Sm site nt 99-105</text>
<text x="70" y="739.0" class="label" style="font-size:15px">Feature overlays</text>
<circle cx="77.0" cy="761.0" r="7" fill="#047857" opacity="0.28"/>
<text x="90.0" y="765.0" class="small">U2 U6 helix I partner</text>
<circle cx="287.0" cy="761.0" r="7" fill="#0b6e2d" opacity="0.28"/>
<text x="300.0" y="765.0" class="small">U2 branchpoint pairing region</text>
<circle cx="497.0" cy="761.0" r="7" fill="#167a38" opacity="0.28"/>
<text x="510.0" y="765.0" class="small">U2 stem IIa</text>
<circle cx="707.0" cy="761.0" r="7" fill="#2f8b4d" opacity="0.28"/>
<text x="720.0" y="765.0" class="small">U2 Sm site</text>
</svg>