<svg xmlns="http://www.w3.org/2000/svg" width="1850" height="864" viewBox="0 0 1850 864">
<style>
text{font-family:Arial,Helvetica,sans-serif} .base{font-size:12px;font-weight:700;text-anchor:middle;dominant-baseline:middle}
.label{font-size:20px;font-weight:700;fill:#111827}.small{font-size:12px;fill:#475569}.feature-label{font-size:12px;font-weight:700;paint-order:stroke;stroke:#fff;stroke-width:4px;stroke-linejoin:round}.feature-callout{stroke-width:1;stroke-dasharray:2 3;fill:none}.bp{stroke:#111827;stroke-width:1.4}.backbone{stroke:#cbd5e1;stroke-width:3;fill:none}.missing{stroke:#94a3b8;stroke-width:3;stroke-dasharray:6 7;fill:none}.inter{stroke:#64748b;stroke-dasharray:5 5;fill:none;opacity:.42}
</style>
<rect width="100%" height="100%" fill="#ffffff"/>
<text x="70" y="40" class="label">7Q3L RNA 2D panel using R2DT layouts</text>
<text x="70" y="63" class="small">stage U2 snRNP; Human; 2.21 A; 2022</text>
<text x="70" y="80" class="small">Per-chain R2DT/RNApuzzler layouts; dashed backbones mark unresolved sequence-record residues; inter-RNA base pairs are clustered from FR3D output.</text>
<rect x="70.0" y="92.0" width="820.0" height="520.0" rx="8" fill="#f8fafc" stroke="#e2e8f0"/>
<text x="88.0" y="120.0" class="label" style="font-size:16px;fill:#006400">U2 snRNA /2 -&gt; 2</text>
<polyline points="312.5,564.0 312.5,517.1 291.9,475.0 312.5,432.9 312.5,386.1 282.0,350.5 282.0,303.7 312.5,268.1 288.5,227.9 302.6,183.2 345.3,164.0 388.1,183.2 402.1,227.9 378.1,268.1 408.6,303.7 408.6,350.5 378.1,386.1 378.1,432.9 398.7,475.0 378.1,517.1 378.1,564.0 471.8,564.0 565.5,564.0 565.5,517.1 565.5,470.3 565.5,423.4 565.5,376.6 530.6,345.3 519.6,299.8 536.3,256.0 574.9,229.5 621.8,229.5 660.4,256.0 677.1,299.8 666.0,345.3 631.1,376.6 631.1,423.4 631.1,470.3 631.1,517.1 631.1,564.0 678.0,564.0" class="backbone"/>
<path d="M312.5,594.0 L312.5,564.0" class="missing"><title>missing 5-prime /2 sequence residues 1-24 (24 nt)</title></path>
<text x="312.5" y="586.0" text-anchor="start" class="small" fill="#64748b">missing 5-prime 24 nt</text>
<path d="M678.0,564.0 L793.0,564.0" class="missing"><title>missing 3-prime /2 sequence residues 67-188 (122 nt)</title></path>
<text x="793.0" y="556.0" text-anchor="end" class="small" fill="#64748b">missing 3-prime 122 nt</text>
<path d="M378.1,564.0 Q425.0,528.0 471.8,564.0" class="missing"><title>missing /2 sequence residues 46-46 (1 nt)</title></path>
<line x1="312.5" y1="564.0" x2="378.1" y2="564.0" class="bp"><title>cWW auth 25-45; seq 25-45</title></line>
<line x1="312.5" y1="517.1" x2="378.1" y2="517.1" class="bp"><title>cWW auth 26-44; seq 26-44</title></line>
<line x1="312.5" y1="432.9" x2="378.1" y2="432.9" class="bp"><title>cWW auth 28-42; seq 28-42</title></line>
<line x1="312.5" y1="386.1" x2="378.1" y2="386.1" class="bp"><title>cWW auth 29-41; seq 29-41</title></line>
<line x1="312.5" y1="268.1" x2="378.1" y2="268.1" class="bp"><title>cWW auth 32-38; seq 32-38</title></line>
<line x1="378.1" y1="268.1" x2="312.5" y2="268.1" class="bp"><title>cWW auth 38-32; seq 38-32</title></line>
<line x1="378.1" y1="386.1" x2="312.5" y2="386.1" class="bp"><title>cWW auth 41-29; seq 41-29</title></line>
<line x1="378.1" y1="432.9" x2="312.5" y2="432.9" class="bp"><title>cWW auth 42-28; seq 42-28</title></line>
<line x1="378.1" y1="517.1" x2="312.5" y2="517.1" class="bp"><title>cWW auth 44-26; seq 44-26</title></line>
<line x1="378.1" y1="564.0" x2="312.5" y2="564.0" class="bp"><title>cWW auth 45-25; seq 45-25</title></line>
<line x1="565.5" y1="564.0" x2="631.1" y2="564.0" class="bp"><title>cWW auth 48-65; seq 48-65</title></line>
<line x1="565.5" y1="517.1" x2="631.1" y2="517.1" class="bp"><title>cWW auth 49-64; seq 49-64</title></line>
<line x1="565.5" y1="470.3" x2="631.1" y2="470.3" class="bp"><title>cWW auth 50-63; seq 50-63</title></line>
<line x1="565.5" y1="423.4" x2="631.1" y2="423.4" class="bp"><title>cWW auth 51-62; seq 51-62</title></line>
<line x1="565.5" y1="376.6" x2="631.1" y2="376.6" class="bp"><title>cWW auth 52-61; seq 52-61</title></line>
<line x1="519.6" y1="299.8" x2="677.1" y2="299.8" class="bp"><title>tSH auth 54-59; seq 54-59</title></line>
<line x1="677.1" y1="299.8" x2="519.6" y2="299.8" class="bp"><title>tHS auth 59-54; seq 59-54</title></line>
<line x1="631.1" y1="376.6" x2="565.5" y2="376.6" class="bp"><title>cWW auth 61-52; seq 61-52</title></line>
<line x1="631.1" y1="423.4" x2="565.5" y2="423.4" class="bp"><title>cWW auth 62-51; seq 62-51</title></line>
<line x1="631.1" y1="470.3" x2="565.5" y2="470.3" class="bp"><title>cWW auth 63-50; seq 63-50</title></line>
<line x1="631.1" y1="517.1" x2="565.5" y2="517.1" class="bp"><title>cWW auth 64-49; seq 64-49</title></line>
<line x1="631.1" y1="564.0" x2="565.5" y2="564.0" class="bp"><title>cWW auth 65-48; seq 65-48</title></line>
<circle cx="312.5" cy="517.1" r="9.2" fill="#047857" opacity="0.28"><title>U2/U6 helix I partner; confidence high</title></circle>
<circle cx="291.9" cy="475.0" r="9.2" fill="#047857" opacity="0.28"><title>U2/U6 helix I partner; confidence high</title></circle>
<circle cx="312.5" cy="432.9" r="9.2" fill="#047857" opacity="0.28"><title>U2/U6 helix I partner; confidence high</title></circle>
<circle cx="312.5" cy="386.1" r="9.2" fill="#047857" opacity="0.28"><title>U2/U6 helix I partner; confidence high</title></circle>
<circle cx="282.0" cy="350.5" r="9.2" fill="#047857" opacity="0.28"><title>U2/U6 helix I partner; confidence high</title></circle>
<circle cx="312.5" cy="268.1" r="9.2" fill="#0b6e2d" opacity="0.22"><title>branchpoint pairing region; confidence medium</title></circle>
<circle cx="288.5" cy="227.9" r="9.2" fill="#0b6e2d" opacity="0.22"><title>branchpoint pairing region; confidence medium</title></circle>
<circle cx="302.6" cy="183.2" r="9.2" fill="#0b6e2d" opacity="0.22"><title>branchpoint pairing region; confidence medium</title></circle>
<circle cx="345.3" cy="164.0" r="9.2" fill="#0b6e2d" opacity="0.22"><title>branchpoint pairing region; confidence medium</title></circle>
<circle cx="388.1" cy="183.2" r="9.2" fill="#0b6e2d" opacity="0.22"><title>branchpoint pairing region; confidence medium</title></circle>
<circle cx="402.1" cy="227.9" r="9.2" fill="#0b6e2d" opacity="0.22"><title>branchpoint pairing region; confidence medium</title></circle>
<circle cx="378.1" cy="268.1" r="9.2" fill="#0b6e2d" opacity="0.22"><title>branchpoint pairing region; confidence medium</title></circle>
<circle cx="408.6" cy="303.7" r="9.2" fill="#0b6e2d" opacity="0.22"><title>branchpoint pairing region; confidence medium</title></circle>
<circle cx="408.6" cy="350.5" r="9.2" fill="#0b6e2d" opacity="0.22"><title>branchpoint pairing region; confidence medium</title></circle>
<circle cx="378.1" cy="386.1" r="9.2" fill="#0b6e2d" opacity="0.22"><title>branchpoint pairing region; confidence medium</title></circle>
<circle cx="471.8" cy="564.0" r="9.2" fill="#167a38" opacity="0.14"><title>stem IIa; confidence low</title></circle>
<circle cx="565.5" cy="564.0" r="9.2" fill="#167a38" opacity="0.14"><title>stem IIa; confidence low</title></circle>
<circle cx="565.5" cy="517.1" r="9.2" fill="#167a38" opacity="0.14"><title>stem IIa; confidence low</title></circle>
<circle cx="565.5" cy="470.3" r="9.2" fill="#167a38" opacity="0.14"><title>stem IIa; confidence low</title></circle>
<circle cx="565.5" cy="423.4" r="9.2" fill="#167a38" opacity="0.14"><title>stem IIa; confidence low</title></circle>
<circle cx="565.5" cy="376.6" r="9.2" fill="#167a38" opacity="0.14"><title>stem IIa; confidence low</title></circle>
<circle cx="530.6" cy="345.3" r="9.2" fill="#167a38" opacity="0.14"><title>stem IIa; confidence low</title></circle>
<circle cx="519.6" cy="299.8" r="9.2" fill="#167a38" opacity="0.14"><title>stem IIa; confidence low</title></circle>
<circle cx="536.3" cy="256.0" r="9.2" fill="#167a38" opacity="0.14"><title>stem IIa; confidence low</title></circle>
<circle cx="574.9" cy="229.5" r="9.2" fill="#167a38" opacity="0.14"><title>stem IIa; confidence low</title></circle>
<circle cx="621.8" cy="229.5" r="9.2" fill="#167a38" opacity="0.14"><title>stem IIa; confidence low</title></circle>
<circle cx="660.4" cy="256.0" r="9.2" fill="#167a38" opacity="0.14"><title>stem IIa; confidence low</title></circle>
<circle cx="677.1" cy="299.8" r="9.2" fill="#167a38" opacity="0.14"><title>stem IIa; confidence low</title></circle>
<circle cx="666.0" cy="345.3" r="9.2" fill="#167a38" opacity="0.14"><title>stem IIa; confidence low</title></circle>
<circle cx="631.1" cy="376.6" r="9.2" fill="#167a38" opacity="0.14"><title>stem IIa; confidence low</title></circle>
<circle cx="631.1" cy="423.4" r="9.2" fill="#167a38" opacity="0.14"><title>stem IIa; confidence low</title></circle>
<circle cx="631.1" cy="470.3" r="9.2" fill="#167a38" opacity="0.14"><title>stem IIa; confidence low</title></circle>
<circle cx="631.1" cy="517.1" r="9.2" fill="#167a38" opacity="0.14"><title>stem IIa; confidence low</title></circle>
<circle cx="631.1" cy="564.0" r="9.2" fill="#167a38" opacity="0.14"><title>stem IIa; confidence low</title></circle>
<circle cx="678.0" cy="564.0" r="9.2" fill="#167a38" opacity="0.14"><title>stem IIa; confidence low</title></circle>
<text x="312.5" y="564.0" class="base" fill="#006400"><title>/2 seq 25 auth 25</title>G</text>
<text x="312.5" y="517.1" class="base" fill="#006400"><title>/2 seq 26 auth 26</title>A</text>
<text x="291.9" y="475.0" class="base" fill="#006400"><title>/2 seq 27 auth 27</title>U</text>
<text x="312.5" y="432.9" class="base" fill="#006400"><title>/2 seq 28 auth 28</title>C</text>
<text x="312.5" y="386.1" class="base" fill="#006400"><title>/2 seq 29 auth 29</title>A</text>
<text x="282.0" y="350.5" class="base" fill="#006400"><title>/2 seq 30 auth 30</title>A</text>
<text x="292.0" y="338.5" class="small" fill="#94a3b8">30</text>
<text x="282.0" y="303.7" class="base" fill="#006400"><title>/2 seq 31 auth 31</title>G</text>
<text x="312.5" y="268.1" class="base" fill="#006400"><title>/2 seq 32 auth 32</title>U</text>
<text x="288.5" y="227.9" class="base" fill="#006400"><title>/2 seq 33 auth 33</title>G</text>
<text x="302.6" y="183.2" class="base" fill="#006400"><title>/2 seq 34 auth 34</title>U</text>
<text x="345.3" y="164.0" class="base" fill="#006400"><title>/2 seq 35 auth 35</title>A</text>
<text x="388.1" y="183.2" class="base" fill="#006400"><title>/2 seq 36 auth 36</title>G</text>
<text x="402.1" y="227.9" class="base" fill="#006400"><title>/2 seq 37 auth 37</title>U</text>
<text x="378.1" y="268.1" class="base" fill="#006400"><title>/2 seq 38 auth 38</title>A</text>
<text x="408.6" y="303.7" class="base" fill="#006400"><title>/2 seq 39 auth 39</title>U</text>
<text x="408.6" y="350.5" class="base" fill="#006400"><title>/2 seq 40 auth 40</title>C</text>
<text x="418.6" y="338.5" class="small" fill="#94a3b8">40</text>
<text x="378.1" y="386.1" class="base" fill="#006400"><title>/2 seq 41 auth 41</title>U</text>
<text x="378.1" y="432.9" class="base" fill="#006400"><title>/2 seq 42 auth 42</title>G</text>
<text x="398.7" y="475.0" class="base" fill="#006400"><title>/2 seq 43 auth 43</title>U</text>
<text x="378.1" y="517.1" class="base" fill="#006400"><title>/2 seq 44 auth 44</title>U</text>
<text x="378.1" y="564.0" class="base" fill="#006400"><title>/2 seq 45 auth 45</title>C</text>
<text x="471.8" y="564.0" class="base" fill="#006400"><title>/2 seq 47 auth 47</title>U</text>
<text x="565.5" y="564.0" class="base" fill="#006400"><title>/2 seq 48 auth 48</title>A</text>
<text x="565.5" y="517.1" class="base" fill="#006400"><title>/2 seq 49 auth 49</title>U</text>
<text x="565.5" y="470.3" class="base" fill="#006400"><title>/2 seq 50 auth 50</title>C</text>
<text x="575.5" y="458.3" class="small" fill="#94a3b8">50</text>
<text x="565.5" y="423.4" class="base" fill="#006400"><title>/2 seq 51 auth 51</title>A</text>
<text x="565.5" y="376.6" class="base" fill="#006400"><title>/2 seq 52 auth 52</title>G</text>
<text x="530.6" y="345.3" class="base" fill="#006400"><title>/2 seq 53 auth 53</title>U</text>
<text x="519.6" y="299.8" class="base" fill="#006400"><title>/2 seq 54 auth 54</title>U</text>
<text x="536.3" y="256.0" class="base" fill="#006400"><title>/2 seq 55 auth 55</title>U</text>
<text x="574.9" y="229.5" class="base" fill="#006400"><title>/2 seq 56 auth 56</title>A</text>
<text x="621.8" y="229.5" class="base" fill="#006400"><title>/2 seq 57 auth 57</title>A</text>
<text x="660.4" y="256.0" class="base" fill="#006400"><title>/2 seq 58 auth 58</title>U</text>
<text x="677.1" y="299.8" class="base" fill="#006400"><title>/2 seq 59 auth 59</title>A</text>
<text x="666.0" y="345.3" class="base" fill="#006400"><title>/2 seq 60 auth 60</title>U</text>
<text x="676.0" y="333.3" class="small" fill="#94a3b8">60</text>
<text x="631.1" y="376.6" class="base" fill="#006400"><title>/2 seq 61 auth 61</title>C</text>
<text x="631.1" y="423.4" class="base" fill="#006400"><title>/2 seq 62 auth 62</title>U</text>
<text x="631.1" y="470.3" class="base" fill="#006400"><title>/2 seq 63 auth 63</title>G</text>
<text x="631.1" y="517.1" class="base" fill="#006400"><title>/2 seq 64 auth 64</title>A</text>
<text x="631.1" y="564.0" class="base" fill="#006400"><title>/2 seq 65 auth 65</title>U</text>
<text x="678.0" y="564.0" class="base" fill="#006400"><title>/2 seq 66 auth 66</title>A</text>
<path d="M302.3,432.3 L260.7,408.3" class="feature-callout" stroke="#047857" opacity="0.60"/>
<text x="260.7" y="408.3" class="feature-label" text-anchor="end" fill="#047857">U2/U6 helix I nt 26-30</text>
<path d="M361.3,256.3 L381.5,212.8" class="feature-callout" stroke="#0b6e2d" opacity="0.54"/>
<text x="381.5" y="212.8" class="feature-label" text-anchor="start" fill="#0b6e2d">BP pairing nt 32-41</text>
<path d="M596.0,404.6 L554.4,380.6" class="feature-callout" stroke="#167a38" opacity="0.46"/>
<text x="554.4" y="380.6" class="feature-label" text-anchor="end" fill="#167a38">stem IIa nt 47-66</text>
<text x="70" y="739.0" class="label" style="font-size:15px">Feature overlays</text>
<circle cx="77.0" cy="761.0" r="7" fill="#047857" opacity="0.28"/>
<text x="90.0" y="765.0" class="small">U2 U6 helix I partner</text>
<circle cx="287.0" cy="761.0" r="7" fill="#0b6e2d" opacity="0.28"/>
<text x="300.0" y="765.0" class="small">U2 branchpoint pairing region</text>
<circle cx="497.0" cy="761.0" r="7" fill="#167a38" opacity="0.28"/>
<text x="510.0" y="765.0" class="small">U2 stem IIa</text>
</svg>