<svg xmlns="http://www.w3.org/2000/svg" width="1850" height="864" viewBox="0 0 1850 864">
<style>
text{font-family:Arial,Helvetica,sans-serif} .base{font-size:12px;font-weight:700;text-anchor:middle;dominant-baseline:middle}
.label{font-size:20px;font-weight:700;fill:#111827}.small{font-size:12px;fill:#475569}.feature-label{font-size:12px;font-weight:700;paint-order:stroke;stroke:#fff;stroke-width:4px;stroke-linejoin:round}.feature-callout{stroke-width:1;stroke-dasharray:2 3;fill:none}.bp{stroke:#111827;stroke-width:1.4}.backbone{stroke:#cbd5e1;stroke-width:3;fill:none}.missing{stroke:#94a3b8;stroke-width:3;stroke-dasharray:6 7;fill:none}.inter{stroke:#64748b;stroke-dasharray:5 5;fill:none;opacity:.42}
</style>
<rect width="100%" height="100%" fill="#ffffff"/>
<text x="70" y="40" class="label">7Q4P RNA 2D panel using R2DT layouts</text>
<text x="70" y="63" class="small">stage U2 snRNP; Human; 2.15 A; 2022</text>
<text x="70" y="80" class="small">Per-chain R2DT/RNApuzzler layouts; dashed backbones mark unresolved sequence-record residues; inter-RNA base pairs are clustered from FR3D output.</text>
<rect x="70.0" y="92.0" width="820.0" height="520.0" rx="8" fill="#f8fafc" stroke="#e2e8f0"/>
<text x="88.0" y="120.0" class="label" style="font-size:16px;fill:#006400">U2 snRNA /2 -&gt; 2</text>
<polyline points="200.7,511.2 246.7,511.2 292.6,511.2 338.6,511.2 338.6,465.3 305.7,433.2 298.4,387.8 260.9,361.3 223.3,334.8 185.7,308.4 141.1,297.4 125.0,254.3 151.5,216.8 197.4,217.4 222.8,255.8 260.4,282.2 297.9,308.7 335.5,335.2 380.7,326.8 422.0,347.0 443.1,387.8 435.8,433.2 403.0,465.3 403.0,511.2 448.9,511.2 494.9,511.2 540.8,511.2 586.8,511.2 632.8,511.2 678.7,511.2 724.7,511.2 724.7,465.3 724.7,419.3 690.4,388.7 679.6,344.0 696.0,301.1 733.9,275.0 779.8,275.0 817.7,301.1 834.1,344.0 823.3,388.7 789.0,419.3 789.0,465.3 789.0,511.2 835.0,511.2" class="backbone"/>
<path d="M152.7,511.2 L200.7,511.2" class="missing"><title>missing 5-prime /2 sequence residues 1-8 (8 nt)</title></path>
<text x="152.7" y="503.2" text-anchor="start" class="small" fill="#64748b">missing 5-prime 8 nt</text>
<path d="M835.0,511.2 L872.0,511.2" class="missing"><title>missing 3-prime /2 sequence residues 65-188 (124 nt)</title></path>
<text x="872.0" y="503.2" text-anchor="end" class="small" fill="#64748b">missing 3-prime 124 nt</text>
<path d="M305.7,433.2 Q302.1,374.5 298.4,387.8" class="missing"><title>missing /2 sequence residues 15-19 (5 nt)</title></path>
<path d="M197.4,217.4 Q210.1,200.6 222.8,255.8" class="missing"><title>missing /2 sequence residues 28-33 (6 nt)</title></path>
<line x1="338.6" y1="511.2" x2="403.0" y2="511.2" class="bp"><title>cWW auth 11-43; seq 12-43</title></line>
<line x1="338.6" y1="465.3" x2="403.0" y2="465.3" class="bp"><title>cWW auth 12-42; seq 13-42</title></line>
<line x1="298.4" y1="387.8" x2="335.5" y2="335.2" class="bp"><title>cWW auth 20-37; seq 20-37</title></line>
<line x1="260.9" y1="361.3" x2="297.9" y2="308.7" class="bp"><title>cWW auth 21-36; seq 21-36</title></line>
<line x1="223.3" y1="334.8" x2="260.4" y2="282.2" class="bp"><title>cWW auth 22-35; seq 22-35</title></line>
<line x1="185.7" y1="308.4" x2="222.8" y2="255.8" class="bp"><title>cWW auth 23-34; seq 23-34</title></line>
<line x1="222.8" y1="255.8" x2="185.7" y2="308.4" class="bp"><title>cWW auth 34-23; seq 34-23</title></line>
<line x1="260.4" y1="282.2" x2="223.3" y2="334.8" class="bp"><title>cWW auth 35-22; seq 35-22</title></line>
<line x1="297.9" y1="308.7" x2="260.9" y2="361.3" class="bp"><title>cWW auth 36-21; seq 36-21</title></line>
<line x1="335.5" y1="335.2" x2="298.4" y2="387.8" class="bp"><title>cWW auth 37-20; seq 37-20</title></line>
<line x1="403.0" y1="465.3" x2="338.6" y2="465.3" class="bp"><title>cWW auth 42-12; seq 42-13</title></line>
<line x1="403.0" y1="511.2" x2="338.6" y2="511.2" class="bp"><title>cWW auth 43-11; seq 43-12</title></line>
<line x1="724.7" y1="511.2" x2="789.0" y2="511.2" class="bp"><title>cWW auth 50-63; seq 50-63</title></line>
<line x1="724.7" y1="465.3" x2="789.0" y2="465.3" class="bp"><title>cWW auth 51-62; seq 51-62</title></line>
<line x1="724.7" y1="419.3" x2="789.0" y2="419.3" class="bp"><title>cWW auth 52-61; seq 52-61</title></line>
<line x1="679.6" y1="344.0" x2="834.1" y2="344.0" class="bp"><title>tSH auth 54-59; seq 54-59</title></line>
<line x1="834.1" y1="344.0" x2="679.6" y2="344.0" class="bp"><title>tHS auth 59-54; seq 59-54</title></line>
<line x1="789.0" y1="419.3" x2="724.7" y2="419.3" class="bp"><title>cWW auth 61-52; seq 61-52</title></line>
<line x1="789.0" y1="465.3" x2="724.7" y2="465.3" class="bp"><title>cWW auth 62-51; seq 62-51</title></line>
<line x1="789.0" y1="511.2" x2="724.7" y2="511.2" class="bp"><title>cWW auth 63-50; seq 63-50</title></line>
<circle cx="151.5" cy="216.8" r="9.2" fill="#047857" opacity="0.28"><title>U2/U6 helix I partner; confidence high</title></circle>
<circle cx="197.4" cy="217.4" r="9.2" fill="#047857" opacity="0.28"><title>U2/U6 helix I partner; confidence high</title></circle>
<circle cx="222.8" cy="255.8" r="9.2" fill="#0b6e2d" opacity="0.22"><title>branchpoint pairing region; confidence medium</title></circle>
<circle cx="260.4" cy="282.2" r="9.2" fill="#0b6e2d" opacity="0.22"><title>branchpoint pairing region; confidence medium</title></circle>
<circle cx="297.9" cy="308.7" r="9.2" fill="#0b6e2d" opacity="0.22"><title>branchpoint pairing region; confidence medium</title></circle>
<circle cx="335.5" cy="335.2" r="9.2" fill="#0b6e2d" opacity="0.22"><title>branchpoint pairing region; confidence medium</title></circle>
<circle cx="380.7" cy="326.8" r="9.2" fill="#0b6e2d" opacity="0.22"><title>branchpoint pairing region; confidence medium</title></circle>
<circle cx="422.0" cy="347.0" r="9.2" fill="#0b6e2d" opacity="0.22"><title>branchpoint pairing region; confidence medium</title></circle>
<circle cx="443.1" cy="387.8" r="9.2" fill="#0b6e2d" opacity="0.22"><title>branchpoint pairing region; confidence medium</title></circle>
<circle cx="435.8" cy="433.2" r="9.2" fill="#0b6e2d" opacity="0.22"><title>branchpoint pairing region; confidence medium</title></circle>
<circle cx="540.8" cy="511.2" r="9.2" fill="#167a38" opacity="0.14"><title>stem IIa; confidence low</title></circle>
<circle cx="586.8" cy="511.2" r="9.2" fill="#167a38" opacity="0.14"><title>stem IIa; confidence low</title></circle>
<circle cx="632.8" cy="511.2" r="9.2" fill="#167a38" opacity="0.14"><title>stem IIa; confidence low</title></circle>
<circle cx="678.7" cy="511.2" r="9.2" fill="#167a38" opacity="0.14"><title>stem IIa; confidence low</title></circle>
<circle cx="724.7" cy="511.2" r="9.2" fill="#167a38" opacity="0.14"><title>stem IIa; confidence low</title></circle>
<circle cx="724.7" cy="465.3" r="9.2" fill="#167a38" opacity="0.14"><title>stem IIa; confidence low</title></circle>
<circle cx="724.7" cy="419.3" r="9.2" fill="#167a38" opacity="0.14"><title>stem IIa; confidence low</title></circle>
<circle cx="690.4" cy="388.7" r="9.2" fill="#167a38" opacity="0.14"><title>stem IIa; confidence low</title></circle>
<circle cx="679.6" cy="344.0" r="9.2" fill="#167a38" opacity="0.14"><title>stem IIa; confidence low</title></circle>
<circle cx="696.0" cy="301.1" r="9.2" fill="#167a38" opacity="0.14"><title>stem IIa; confidence low</title></circle>
<circle cx="733.9" cy="275.0" r="9.2" fill="#167a38" opacity="0.14"><title>stem IIa; confidence low</title></circle>
<circle cx="779.8" cy="275.0" r="9.2" fill="#167a38" opacity="0.14"><title>stem IIa; confidence low</title></circle>
<circle cx="817.7" cy="301.1" r="9.2" fill="#167a38" opacity="0.14"><title>stem IIa; confidence low</title></circle>
<circle cx="834.1" cy="344.0" r="9.2" fill="#167a38" opacity="0.14"><title>stem IIa; confidence low</title></circle>
<circle cx="823.3" cy="388.7" r="9.2" fill="#167a38" opacity="0.14"><title>stem IIa; confidence low</title></circle>
<circle cx="789.0" cy="419.3" r="9.2" fill="#167a38" opacity="0.14"><title>stem IIa; confidence low</title></circle>
<circle cx="789.0" cy="465.3" r="9.2" fill="#167a38" opacity="0.14"><title>stem IIa; confidence low</title></circle>
<circle cx="789.0" cy="511.2" r="9.2" fill="#167a38" opacity="0.14"><title>stem IIa; confidence low</title></circle>
<circle cx="835.0" cy="511.2" r="9.2" fill="#167a38" opacity="0.14"><title>stem IIa; confidence low</title></circle>
<text x="200.7" y="511.2" class="base" fill="#006400"><title>/2 seq 9 auth 8</title>U</text>
<text x="246.7" y="511.2" class="base" fill="#006400"><title>/2 seq 10 auth 9</title>C</text>
<text x="256.7" y="499.2" class="small" fill="#94a3b8">10</text>
<text x="292.6" y="511.2" class="base" fill="#006400"><title>/2 seq 11 auth 10</title>G</text>
<text x="338.6" y="511.2" class="base" fill="#006400"><title>/2 seq 12 auth 11</title>G</text>
<text x="338.6" y="465.3" class="base" fill="#006400"><title>/2 seq 13 auth 12</title>C</text>
<text x="305.7" y="433.2" class="base" fill="#006400"><title>/2 seq 14 auth 13</title>C</text>
<text x="298.4" y="387.8" class="base" fill="#006400"><title>/2 seq 20 auth 20</title>G</text>
<text x="308.4" y="375.8" class="small" fill="#94a3b8">20</text>
<text x="260.9" y="361.3" class="base" fill="#006400"><title>/2 seq 21 auth 21</title>C</text>
<text x="223.3" y="334.8" class="base" fill="#006400"><title>/2 seq 22 auth 22</title>U</text>
<text x="185.7" y="308.4" class="base" fill="#006400"><title>/2 seq 23 auth 23</title>A</text>
<text x="141.1" y="297.4" class="base" fill="#006400"><title>/2 seq 24 auth 24</title>A</text>
<text x="125.0" y="254.3" class="base" fill="#006400"><title>/2 seq 25 auth 25</title>G</text>
<text x="151.5" y="216.8" class="base" fill="#006400"><title>/2 seq 26 auth 26</title>A</text>
<text x="197.4" y="217.4" class="base" fill="#006400"><title>/2 seq 27 auth 27</title>U</text>
<text x="222.8" y="255.8" class="base" fill="#006400"><title>/2 seq 34 auth 34</title>U</text>
<text x="260.4" y="282.2" class="base" fill="#006400"><title>/2 seq 35 auth 35</title>A</text>
<text x="297.9" y="308.7" class="base" fill="#006400"><title>/2 seq 36 auth 36</title>G</text>
<text x="335.5" y="335.2" class="base" fill="#006400"><title>/2 seq 37 auth 37</title>U</text>
<text x="380.7" y="326.8" class="base" fill="#006400"><title>/2 seq 38 auth 38</title>A</text>
<text x="422.0" y="347.0" class="base" fill="#006400"><title>/2 seq 39 auth 39</title>U</text>
<text x="443.1" y="387.8" class="base" fill="#006400"><title>/2 seq 40 auth 40</title>C</text>
<text x="453.1" y="375.8" class="small" fill="#94a3b8">40</text>
<text x="435.8" y="433.2" class="base" fill="#006400"><title>/2 seq 41 auth 41</title>U</text>
<text x="403.0" y="465.3" class="base" fill="#006400"><title>/2 seq 42 auth 42</title>G</text>
<text x="403.0" y="511.2" class="base" fill="#006400"><title>/2 seq 43 auth 43</title>U</text>
<text x="448.9" y="511.2" class="base" fill="#006400"><title>/2 seq 44 auth 44</title>U</text>
<text x="494.9" y="511.2" class="base" fill="#006400"><title>/2 seq 45 auth 45</title>C</text>
<text x="540.8" y="511.2" class="base" fill="#006400"><title>/2 seq 46 auth 46</title>U</text>
<text x="586.8" y="511.2" class="base" fill="#006400"><title>/2 seq 47 auth 47</title>U</text>
<text x="632.8" y="511.2" class="base" fill="#006400"><title>/2 seq 48 auth 48</title>A</text>
<text x="678.7" y="511.2" class="base" fill="#006400"><title>/2 seq 49 auth 49</title>U</text>
<text x="724.7" y="511.2" class="base" fill="#006400"><title>/2 seq 50 auth 50</title>C</text>
<text x="734.7" y="499.2" class="small" fill="#94a3b8">50</text>
<text x="724.7" y="465.3" class="base" fill="#006400"><title>/2 seq 51 auth 51</title>A</text>
<text x="724.7" y="419.3" class="base" fill="#006400"><title>/2 seq 52 auth 52</title>G</text>
<text x="690.4" y="388.7" class="base" fill="#006400"><title>/2 seq 53 auth 53</title>U</text>
<text x="679.6" y="344.0" class="base" fill="#006400"><title>/2 seq 54 auth 54</title>U</text>
<text x="696.0" y="301.1" class="base" fill="#006400"><title>/2 seq 55 auth 55</title>U</text>
<text x="733.9" y="275.0" class="base" fill="#006400"><title>/2 seq 56 auth 56</title>A</text>
<text x="779.8" y="275.0" class="base" fill="#006400"><title>/2 seq 57 auth 57</title>A</text>
<text x="817.7" y="301.1" class="base" fill="#006400"><title>/2 seq 58 auth 58</title>U</text>
<text x="834.1" y="344.0" class="base" fill="#006400"><title>/2 seq 59 auth 59</title>A</text>
<text x="823.3" y="388.7" class="base" fill="#006400"><title>/2 seq 60 auth 60</title>U</text>
<text x="833.3" y="376.7" class="small" fill="#94a3b8">60</text>
<text x="789.0" y="419.3" class="base" fill="#006400"><title>/2 seq 61 auth 61</title>C</text>
<text x="789.0" y="465.3" class="base" fill="#006400"><title>/2 seq 62 auth 62</title>U</text>
<text x="789.0" y="511.2" class="base" fill="#006400"><title>/2 seq 63 auth 63</title>G</text>
<text x="835.0" y="511.2" class="base" fill="#006400"><title>/2 seq 64 auth 64</title>A</text>
<path d="M174.5,217.1 L194.7,173.6" class="feature-callout" stroke="#047857" opacity="0.60"/>
<text x="194.7" y="173.6" class="feature-label" text-anchor="start" fill="#047857">U2/U6 helix I nt 26-27</text>
<path d="M349.8,334.6 L308.2,310.6" class="feature-callout" stroke="#0b6e2d" opacity="0.54"/>
<text x="308.2" y="310.6" class="feature-label" text-anchor="end" fill="#0b6e2d">BP pairing nt 34-41</text>
<path d="M730.0,419.2 L688.4,395.2" class="feature-callout" stroke="#167a38" opacity="0.46"/>
<text x="688.4" y="395.2" class="feature-label" text-anchor="end" fill="#167a38">stem IIa nt 46-64</text>
<text x="70" y="739.0" class="label" style="font-size:15px">Feature overlays</text>
<circle cx="77.0" cy="761.0" r="7" fill="#047857" opacity="0.28"/>
<text x="90.0" y="765.0" class="small">U2 U6 helix I partner</text>
<circle cx="287.0" cy="761.0" r="7" fill="#0b6e2d" opacity="0.28"/>
<text x="300.0" y="765.0" class="small">U2 branchpoint pairing region</text>
<circle cx="497.0" cy="761.0" r="7" fill="#167a38" opacity="0.28"/>
<text x="510.0" y="765.0" class="small">U2 stem IIa</text>
</svg>