<svg xmlns="http://www.w3.org/2000/svg" width="1850" height="864" viewBox="0 0 1850 864">
<style>
text{font-family:Arial,Helvetica,sans-serif} .base{font-size:12px;font-weight:700;text-anchor:middle;dominant-baseline:middle}
.label{font-size:20px;font-weight:700;fill:#111827}.small{font-size:12px;fill:#475569}.feature-label{font-size:12px;font-weight:700;paint-order:stroke;stroke:#fff;stroke-width:4px;stroke-linejoin:round}.feature-callout{stroke-width:1;stroke-dasharray:2 3;fill:none}.bp{stroke:#111827;stroke-width:1.4}.backbone{stroke:#cbd5e1;stroke-width:3;fill:none}.missing{stroke:#94a3b8;stroke-width:3;stroke-dasharray:6 7;fill:none}.inter{stroke:#64748b;stroke-dasharray:5 5;fill:none;opacity:.42}
</style>
<rect width="100%" height="100%" fill="#ffffff"/>
<text x="70" y="40" class="label">9K1O RNA 2D panel using R2DT layouts</text>
<text x="70" y="63" class="small">stage U2 snRNP; Human; 3.3 A; 2025</text>
<text x="70" y="80" class="small">Per-chain R2DT/RNApuzzler layouts; dashed backbones mark unresolved sequence-record residues; inter-RNA base pairs are clustered from FR3D output.</text>
<rect x="70.0" y="92.0" width="820.0" height="520.0" rx="8" fill="#f8fafc" stroke="#e2e8f0"/>
<text x="88.0" y="120.0" class="label" style="font-size:16px;fill:#303030">mRNA /G -&gt; MA</text>
<polyline points="125.0,362.8 184.2,362.8 243.3,362.8 302.5,362.8 361.7,362.8 420.8,362.8 480.0,362.8 539.2,362.8 598.3,362.8 657.5,362.8 716.7,362.8 775.8,362.8 835.0,362.8" class="backbone"/>
<path d="M88.0,362.8 L125.0,362.8" class="missing"><title>missing 5-prime /G sequence residues 1-10 (10 nt)</title></path>
<text x="88.0" y="354.8" text-anchor="start" class="small" fill="#64748b">missing 5-prime 10 nt</text>
<circle cx="125.0" cy="362.8" r="9.2" fill="#303030" opacity="0.22"><title>substrate RNA; confidence medium</title></circle>
<circle cx="184.2" cy="362.8" r="9.2" fill="#303030" opacity="0.22"><title>substrate RNA; confidence medium</title></circle>
<circle cx="243.3" cy="362.8" r="9.2" fill="#303030" opacity="0.22"><title>substrate RNA; confidence medium</title></circle>
<circle cx="302.5" cy="362.8" r="9.2" fill="#303030" opacity="0.22"><title>substrate RNA; confidence medium</title></circle>
<circle cx="361.7" cy="362.8" r="9.2" fill="#303030" opacity="0.22"><title>substrate RNA; confidence medium</title></circle>
<circle cx="420.8" cy="362.8" r="9.2" fill="#303030" opacity="0.22"><title>substrate RNA; confidence medium</title></circle>
<circle cx="480.0" cy="362.8" r="9.2" fill="#303030" opacity="0.22"><title>substrate RNA; confidence medium</title></circle>
<circle cx="539.2" cy="362.8" r="9.2" fill="#303030" opacity="0.22"><title>substrate RNA; confidence medium</title></circle>
<circle cx="598.3" cy="362.8" r="9.2" fill="#303030" opacity="0.22"><title>substrate RNA; confidence medium</title></circle>
<circle cx="657.5" cy="362.8" r="9.2" fill="#303030" opacity="0.22"><title>substrate RNA; confidence medium</title></circle>
<circle cx="716.7" cy="362.8" r="9.2" fill="#303030" opacity="0.22"><title>substrate RNA; confidence medium</title></circle>
<circle cx="775.8" cy="362.8" r="9.2" fill="#303030" opacity="0.22"><title>substrate RNA; confidence medium</title></circle>
<circle cx="835.0" cy="362.8" r="9.2" fill="#303030" opacity="0.22"><title>substrate RNA; confidence medium</title></circle>
<text x="125.0" y="362.8" class="base" fill="#303030"><title>/G seq 11 auth 11</title>G</text>
<text x="184.2" y="362.8" class="base" fill="#303030"><title>/G seq 12 auth 12</title>A</text>
<text x="243.3" y="362.8" class="base" fill="#303030"><title>/G seq 13 auth 13</title>C</text>
<text x="302.5" y="362.8" class="base" fill="#303030"><title>/G seq 14 auth 14</title>G</text>
<text x="361.7" y="362.8" class="base" fill="#303030"><title>/G seq 15 auth 15</title>C</text>
<text x="420.8" y="362.8" class="base" fill="#303030"><title>/G seq 16 auth 16</title>G</text>
<text x="480.0" y="362.8" class="base" fill="#303030"><title>/G seq 17 auth 17</title>C</text>
<text x="539.2" y="362.8" class="base" fill="#303030"><title>/G seq 18 auth 18</title>A</text>
<text x="598.3" y="362.8" class="base" fill="#303030"><title>/G seq 19 auth 19</title>U</text>
<text x="657.5" y="362.8" class="base" fill="#303030"><title>/G seq 20 auth 20</title>C</text>
<text x="667.5" y="350.8" class="small" fill="#94a3b8">20</text>
<text x="716.7" y="362.8" class="base" fill="#303030"><title>/G seq 21 auth 21</title>A</text>
<text x="775.8" y="362.8" class="base" fill="#303030"><title>/G seq 22 auth 22</title>U</text>
<text x="835.0" y="362.8" class="base" fill="#303030"><title>/G seq 23 auth 23</title>A</text>
<rect x="960.0" y="92.0" width="820.0" height="520.0" rx="8" fill="#f8fafc" stroke="#e2e8f0"/>
<text x="978.0" y="120.0" class="label" style="font-size:16px;fill:#303030">mRNA /H -&gt; MB</text>
<polyline points="1015.0,363.3 1050.5,363.3 1086.0,363.3 1121.5,363.3 1157.0,363.3 1192.5,363.3 1228.0,363.3 1263.5,363.3 1299.0,363.3 1334.5,363.3 1370.0,363.3 1405.5,363.3 1441.0,363.3 1476.5,363.3 1512.0,363.3 1547.5,363.3 1583.0,363.3 1618.5,363.3 1654.0,363.3 1689.5,363.3 1725.0,363.3" class="backbone"/>
<path d="M1725.0,363.3 L1752.0,363.3" class="missing"><title>missing 3-prime /H sequence residues 22-22 (1 nt)</title></path>
<text x="1752.0" y="355.3" text-anchor="end" class="small" fill="#64748b">missing 3-prime 1 nt</text>
<circle cx="1015.0" cy="363.3" r="9.2" fill="#303030" opacity="0.22"><title>substrate RNA; confidence medium</title></circle>
<circle cx="1050.5" cy="363.3" r="9.2" fill="#303030" opacity="0.22"><title>substrate RNA; confidence medium</title></circle>
<circle cx="1086.0" cy="363.3" r="9.2" fill="#303030" opacity="0.22"><title>substrate RNA; confidence medium</title></circle>
<circle cx="1121.5" cy="363.3" r="9.2" fill="#303030" opacity="0.22"><title>substrate RNA; confidence medium</title></circle>
<circle cx="1157.0" cy="363.3" r="9.2" fill="#303030" opacity="0.22"><title>substrate RNA; confidence medium</title></circle>
<circle cx="1192.5" cy="363.3" r="9.2" fill="#303030" opacity="0.22"><title>substrate RNA; confidence medium</title></circle>
<circle cx="1228.0" cy="363.3" r="9.2" fill="#303030" opacity="0.22"><title>substrate RNA; confidence medium</title></circle>
<circle cx="1263.5" cy="363.3" r="9.2" fill="#303030" opacity="0.22"><title>substrate RNA; confidence medium</title></circle>
<circle cx="1299.0" cy="363.3" r="9.2" fill="#303030" opacity="0.22"><title>substrate RNA; confidence medium</title></circle>
<circle cx="1334.5" cy="363.3" r="9.2" fill="#303030" opacity="0.22"><title>substrate RNA; confidence medium</title></circle>
<circle cx="1370.0" cy="363.3" r="9.2" fill="#303030" opacity="0.22"><title>substrate RNA; confidence medium</title></circle>
<circle cx="1405.5" cy="363.3" r="9.2" fill="#303030" opacity="0.22"><title>substrate RNA; confidence medium</title></circle>
<circle cx="1441.0" cy="363.3" r="9.2" fill="#303030" opacity="0.22"><title>substrate RNA; confidence medium</title></circle>
<circle cx="1476.5" cy="363.3" r="9.2" fill="#303030" opacity="0.22"><title>substrate RNA; confidence medium</title></circle>
<circle cx="1512.0" cy="363.3" r="9.2" fill="#303030" opacity="0.22"><title>substrate RNA; confidence medium</title></circle>
<circle cx="1547.5" cy="363.3" r="9.2" fill="#303030" opacity="0.22"><title>substrate RNA; confidence medium</title></circle>
<circle cx="1583.0" cy="363.3" r="9.2" fill="#303030" opacity="0.22"><title>substrate RNA; confidence medium</title></circle>
<circle cx="1618.5" cy="363.3" r="9.2" fill="#303030" opacity="0.22"><title>substrate RNA; confidence medium</title></circle>
<circle cx="1654.0" cy="363.3" r="9.2" fill="#303030" opacity="0.22"><title>substrate RNA; confidence medium</title></circle>
<circle cx="1689.5" cy="363.3" r="9.2" fill="#303030" opacity="0.22"><title>substrate RNA; confidence medium</title></circle>
<circle cx="1725.0" cy="363.3" r="9.2" fill="#303030" opacity="0.22"><title>substrate RNA; confidence medium</title></circle>
<text x="1015.0" y="363.3" class="base" fill="#303030"><title>/H seq 1 auth 1</title>A</text>
<text x="1050.5" y="363.3" class="base" fill="#303030"><title>/H seq 2 auth 2</title>C</text>
<text x="1086.0" y="363.3" class="base" fill="#303030"><title>/H seq 3 auth 3</title>A</text>
<text x="1121.5" y="363.3" class="base" fill="#303030"><title>/H seq 4 auth 4</title>A</text>
<text x="1157.0" y="363.3" class="base" fill="#303030"><title>/H seq 5 auth 5</title>C</text>
<text x="1192.5" y="363.3" class="base" fill="#303030"><title>/H seq 6 auth 6</title>A</text>
<text x="1228.0" y="363.3" class="base" fill="#303030"><title>/H seq 7 auth 7</title>A</text>
<text x="1263.5" y="363.3" class="base" fill="#303030"><title>/H seq 8 auth 8</title>G</text>
<text x="1299.0" y="363.3" class="base" fill="#303030"><title>/H seq 9 auth 9</title>A</text>
<text x="1334.5" y="363.3" class="base" fill="#303030"><title>/H seq 10 auth 10</title>A</text>
<text x="1344.5" y="351.3" class="small" fill="#94a3b8">10</text>
<text x="1370.0" y="363.3" class="base" fill="#303030"><title>/H seq 11 auth 11</title>G</text>
<text x="1405.5" y="363.3" class="base" fill="#303030"><title>/H seq 12 auth 12</title>A</text>
<text x="1441.0" y="363.3" class="base" fill="#303030"><title>/H seq 13 auth 13</title>C</text>
<text x="1476.5" y="363.3" class="base" fill="#303030"><title>/H seq 14 auth 14</title>G</text>
<text x="1512.0" y="363.3" class="base" fill="#303030"><title>/H seq 15 auth 15</title>C</text>
<text x="1547.5" y="363.3" class="base" fill="#303030"><title>/H seq 16 auth 16</title>G</text>
<text x="1583.0" y="363.3" class="base" fill="#303030"><title>/H seq 17 auth 17</title>C</text>
<text x="1618.5" y="363.3" class="base" fill="#303030"><title>/H seq 18 auth 18</title>A</text>
<text x="1654.0" y="363.3" class="base" fill="#303030"><title>/H seq 19 auth 19</title>U</text>
<text x="1689.5" y="363.3" class="base" fill="#303030"><title>/H seq 20 auth 20</title>C</text>
<text x="1699.5" y="351.3" class="small" fill="#94a3b8">20</text>
<text x="1725.0" y="363.3" class="base" fill="#303030"><title>/H seq 21 auth 21</title>A</text>
<path d="M434.0,362.8 Q971.0,317.8 1508.1,363.3" class="inter" stroke-width="3.1"><title>G:11-22 to H:10-20; 9 FR3D interactions; cWW</title></path>
<path d="M1508.1,363.3 Q971.0,317.8 434.0,362.8" class="inter" stroke-width="3.1"><title>H:10-20 to G:11-22; 9 FR3D interactions; cWW</title></path>
<text x="70" y="739.0" class="label" style="font-size:15px">Feature overlays</text>
<circle cx="77.0" cy="761.0" r="7" fill="#303030" opacity="0.28"/>
<text x="90.0" y="765.0" class="small">substrate</text>
</svg>