<svg xmlns="http://www.w3.org/2000/svg" width="1850" height="864" viewBox="0 0 1850 864">
<style>
text{font-family:Arial,Helvetica,sans-serif} .base{font-size:12px;font-weight:700;text-anchor:middle;dominant-baseline:middle}
.label{font-size:20px;font-weight:700;fill:#111827}.small{font-size:12px;fill:#475569}.feature-label{font-size:12px;font-weight:700;paint-order:stroke;stroke:#fff;stroke-width:4px;stroke-linejoin:round}.feature-callout{stroke-width:1;stroke-dasharray:2 3;fill:none}.bp{stroke:#111827;stroke-width:1.4}.backbone{stroke:#cbd5e1;stroke-width:3;fill:none}.missing{stroke:#94a3b8;stroke-width:3;stroke-dasharray:6 7;fill:none}.inter{stroke:#64748b;stroke-dasharray:5 5;fill:none;opacity:.42}
</style>
<rect width="100%" height="100%" fill="#ffffff"/>
<text x="70" y="40" class="label">9K1Q RNA 2D panel using R2DT layouts</text>
<text x="70" y="63" class="small">stage U2 snRNP; Human; 3.6 A; 2025</text>
<text x="70" y="80" class="small">Per-chain R2DT/RNApuzzler layouts; dashed backbones mark unresolved sequence-record residues; inter-RNA base pairs are clustered from FR3D output.</text>
<rect x="70.0" y="92.0" width="820.0" height="520.0" rx="8" fill="#f8fafc" stroke="#e2e8f0"/>
<text x="88.0" y="120.0" class="label" style="font-size:16px;fill:#303030">mRNA /G -&gt; MA</text>
<polyline points="125.0,363.3 158.8,363.3 192.6,363.3 226.4,363.3 260.2,363.3 294.0,363.3 327.9,363.3 361.7,363.3 395.5,363.3 429.3,363.3 463.1,363.3 496.9,363.3 530.7,363.3 564.5,363.3 598.3,363.3 632.1,363.3 666.0,363.3 699.8,363.3 733.6,363.3 767.4,363.3 801.2,363.3 835.0,363.3" class="backbone"/>
<path d="M88.0,363.3 L125.0,363.3" class="missing"><title>missing 5-prime /G sequence residues 1-30 (30 nt)</title></path>
<text x="88.0" y="355.3" text-anchor="start" class="small" fill="#64748b">missing 5-prime 30 nt</text>
<path d="M835.0,363.3 L872.0,363.3" class="missing"><title>missing 3-prime /G sequence residues 53-101 (49 nt)</title></path>
<text x="872.0" y="355.3" text-anchor="end" class="small" fill="#64748b">missing 3-prime 49 nt</text>
<circle cx="125.0" cy="363.3" r="9.2" fill="#303030" opacity="0.22"><title>substrate RNA; confidence medium</title></circle>
<circle cx="158.8" cy="363.3" r="9.2" fill="#303030" opacity="0.22"><title>substrate RNA; confidence medium</title></circle>
<circle cx="192.6" cy="363.3" r="9.2" fill="#303030" opacity="0.22"><title>substrate RNA; confidence medium</title></circle>
<circle cx="226.4" cy="363.3" r="9.2" fill="#303030" opacity="0.22"><title>substrate RNA; confidence medium</title></circle>
<circle cx="260.2" cy="363.3" r="9.2" fill="#303030" opacity="0.22"><title>substrate RNA; confidence medium</title></circle>
<circle cx="294.0" cy="363.3" r="9.2" fill="#303030" opacity="0.22"><title>substrate RNA; confidence medium</title></circle>
<circle cx="327.9" cy="363.3" r="9.2" fill="#303030" opacity="0.22"><title>substrate RNA; confidence medium</title></circle>
<circle cx="361.7" cy="363.3" r="9.2" fill="#303030" opacity="0.22"><title>substrate RNA; confidence medium</title></circle>
<circle cx="395.5" cy="363.3" r="9.2" fill="#303030" opacity="0.22"><title>substrate RNA; confidence medium</title></circle>
<circle cx="429.3" cy="363.3" r="9.2" fill="#303030" opacity="0.22"><title>substrate RNA; confidence medium</title></circle>
<circle cx="463.1" cy="363.3" r="9.2" fill="#303030" opacity="0.22"><title>substrate RNA; confidence medium</title></circle>
<circle cx="496.9" cy="363.3" r="9.2" fill="#303030" opacity="0.22"><title>substrate RNA; confidence medium</title></circle>
<circle cx="530.7" cy="363.3" r="9.2" fill="#303030" opacity="0.22"><title>substrate RNA; confidence medium</title></circle>
<circle cx="564.5" cy="363.3" r="9.2" fill="#303030" opacity="0.22"><title>substrate RNA; confidence medium</title></circle>
<circle cx="598.3" cy="363.3" r="9.2" fill="#303030" opacity="0.22"><title>substrate RNA; confidence medium</title></circle>
<circle cx="632.1" cy="363.3" r="9.2" fill="#303030" opacity="0.22"><title>substrate RNA; confidence medium</title></circle>
<circle cx="666.0" cy="363.3" r="9.2" fill="#303030" opacity="0.22"><title>substrate RNA; confidence medium</title></circle>
<circle cx="699.8" cy="363.3" r="9.2" fill="#303030" opacity="0.22"><title>substrate RNA; confidence medium</title></circle>
<circle cx="733.6" cy="363.3" r="9.2" fill="#303030" opacity="0.22"><title>substrate RNA; confidence medium</title></circle>
<circle cx="767.4" cy="363.3" r="9.2" fill="#303030" opacity="0.22"><title>substrate RNA; confidence medium</title></circle>
<circle cx="801.2" cy="363.3" r="9.2" fill="#303030" opacity="0.22"><title>substrate RNA; confidence medium</title></circle>
<circle cx="835.0" cy="363.3" r="9.2" fill="#303030" opacity="0.22"><title>substrate RNA; confidence medium</title></circle>
<text x="125.0" y="363.3" class="base" fill="#303030"><title>/G seq 31 auth 31</title>G</text>
<text x="158.8" y="363.3" class="base" fill="#303030"><title>/G seq 32 auth 32</title>C</text>
<text x="192.6" y="363.3" class="base" fill="#303030"><title>/G seq 33 auth 33</title>G</text>
<text x="226.4" y="363.3" class="base" fill="#303030"><title>/G seq 34 auth 34</title>C</text>
<text x="260.2" y="363.3" class="base" fill="#303030"><title>/G seq 35 auth 35</title>A</text>
<text x="294.0" y="363.3" class="base" fill="#303030"><title>/G seq 36 auth 36</title>U</text>
<text x="327.9" y="363.3" class="base" fill="#303030"><title>/G seq 37 auth 37</title>C</text>
<text x="361.7" y="363.3" class="base" fill="#303030"><title>/G seq 38 auth 38</title>A</text>
<text x="395.5" y="363.3" class="base" fill="#303030"><title>/G seq 39 auth 39</title>U</text>
<text x="429.3" y="363.3" class="base" fill="#303030"><title>/G seq 40 auth 40</title>C</text>
<text x="439.3" y="351.3" class="small" fill="#94a3b8">40</text>
<text x="463.1" y="363.3" class="base" fill="#303030"><title>/G seq 41 auth 41</title>C</text>
<text x="496.9" y="363.3" class="base" fill="#303030"><title>/G seq 42 auth 42</title>C</text>
<text x="530.7" y="363.3" class="base" fill="#303030"><title>/G seq 43 auth 43</title>G</text>
<text x="564.5" y="363.3" class="base" fill="#303030"><title>/G seq 44 auth 44</title>C</text>
<text x="598.3" y="363.3" class="base" fill="#303030"><title>/G seq 45 auth 45</title>G</text>
<text x="632.1" y="363.3" class="base" fill="#303030"><title>/G seq 46 auth 46</title>C</text>
<text x="666.0" y="363.3" class="base" fill="#303030"><title>/G seq 47 auth 47</title>C</text>
<text x="699.8" y="363.3" class="base" fill="#303030"><title>/G seq 48 auth 48</title>A</text>
<text x="733.6" y="363.3" class="base" fill="#303030"><title>/G seq 49 auth 49</title>C</text>
<text x="767.4" y="363.3" class="base" fill="#303030"><title>/G seq 50 auth 50</title>C</text>
<text x="777.4" y="351.3" class="small" fill="#94a3b8">50</text>
<text x="801.2" y="363.3" class="base" fill="#303030"><title>/G seq 51 auth 51</title>U</text>
<text x="835.0" y="363.3" class="base" fill="#303030"><title>/G seq 52 auth 52</title>G</text>
<rect x="960.0" y="92.0" width="820.0" height="520.0" rx="8" fill="#f8fafc" stroke="#e2e8f0"/>
<text x="978.0" y="120.0" class="label" style="font-size:16px;fill:#303030">mRNA /H -&gt; MB</text>
<polyline points="1015.0,362.2 1103.8,362.2 1192.5,362.2 1281.2,362.2 1370.0,362.2 1458.8,362.2 1547.5,362.2 1636.2,362.2 1725.0,362.2" class="backbone"/>
<path d="M978.0,362.2 L1015.0,362.2" class="missing"><title>missing 5-prime /H sequence residues 1-25 (25 nt)</title></path>
<text x="978.0" y="354.2" text-anchor="start" class="small" fill="#64748b">missing 5-prime 25 nt</text>
<path d="M1725.0,362.2 L1762.0,362.2" class="missing"><title>missing 3-prime /H sequence residues 35-101 (67 nt)</title></path>
<text x="1762.0" y="354.2" text-anchor="end" class="small" fill="#64748b">missing 3-prime 67 nt</text>
<circle cx="1015.0" cy="362.2" r="9.2" fill="#303030" opacity="0.22"><title>substrate RNA; confidence medium</title></circle>
<circle cx="1103.8" cy="362.2" r="9.2" fill="#303030" opacity="0.22"><title>substrate RNA; confidence medium</title></circle>
<circle cx="1192.5" cy="362.2" r="9.2" fill="#303030" opacity="0.22"><title>substrate RNA; confidence medium</title></circle>
<circle cx="1281.2" cy="362.2" r="9.2" fill="#303030" opacity="0.22"><title>substrate RNA; confidence medium</title></circle>
<circle cx="1370.0" cy="362.2" r="9.2" fill="#303030" opacity="0.22"><title>substrate RNA; confidence medium</title></circle>
<circle cx="1458.8" cy="362.2" r="9.2" fill="#303030" opacity="0.22"><title>substrate RNA; confidence medium</title></circle>
<circle cx="1547.5" cy="362.2" r="9.2" fill="#303030" opacity="0.22"><title>substrate RNA; confidence medium</title></circle>
<circle cx="1636.2" cy="362.2" r="9.2" fill="#303030" opacity="0.22"><title>substrate RNA; confidence medium</title></circle>
<circle cx="1725.0" cy="362.2" r="9.2" fill="#303030" opacity="0.22"><title>substrate RNA; confidence medium</title></circle>
<text x="1015.0" y="362.2" class="base" fill="#303030"><title>/H seq 26 auth 26</title>A</text>
<text x="1103.8" y="362.2" class="base" fill="#303030"><title>/H seq 27 auth 27</title>A</text>
<text x="1192.5" y="362.2" class="base" fill="#303030"><title>/H seq 28 auth 28</title>G</text>
<text x="1281.2" y="362.2" class="base" fill="#303030"><title>/H seq 29 auth 29</title>A</text>
<text x="1370.0" y="362.2" class="base" fill="#303030"><title>/H seq 30 auth 30</title>C</text>
<text x="1380.0" y="350.2" class="small" fill="#94a3b8">30</text>
<text x="1458.8" y="362.2" class="base" fill="#303030"><title>/H seq 31 auth 31</title>G</text>
<text x="1547.5" y="362.2" class="base" fill="#303030"><title>/H seq 32 auth 32</title>C</text>
<text x="1636.2" y="362.2" class="base" fill="#303030"><title>/H seq 33 auth 33</title>G</text>
<text x="1725.0" y="362.2" class="base" fill="#303030"><title>/H seq 34 auth 34</title>C</text>
<path d="M265.9,363.3 Q817.9,317.2 1370.0,362.2" class="inter" stroke-width="2.4"><title>G:32-39 to H:27-33; 6 FR3D interactions; cWW</title></path>
<path d="M1370.0,362.2 Q817.9,317.2 265.9,363.3" class="inter" stroke-width="2.4"><title>H:27-33 to G:32-39; 6 FR3D interactions; cWW</title></path>
<text x="70" y="739.0" class="label" style="font-size:15px">Feature overlays</text>
<circle cx="77.0" cy="761.0" r="7" fill="#303030" opacity="0.28"/>
<text x="90.0" y="765.0" class="small">substrate</text>
</svg>